<?xml version="1.0" encoding="utf-8"?>
<!-- Generator: Adobe Illustrator 16.0.0, SVG Export Plug-In . SVG Version: 6.00 Build 0)  -->
<!DOCTYPE svg PUBLIC "-//W3C//DTD SVG 1.1//EN" "http://www.w3.org/Graphics/SVG/1.1/DTD/svg11.dtd">
<svg version="1.1" id="Layer_1" xmlns="http://www.w3.org/2000/svg" xmlns:xlink="http://www.w3.org/1999/xlink" x="0px" y="0px"
	 width="488.235px" height="552.487px" viewBox="0 0 488.235 552.487" enable-background="new 0 0 488.235 552.487"
	 xml:space="preserve">
<ellipse transform="matrix(0.9995 0.0327 -0.0327 0.9995 16.1514 -8.3974)" opacity="0.3" fill="#7EA6EB" cx="265.013" cy="489.991" rx="223.339" ry="37.372"/>
<g>
	<path fill="#6694EE" d="M178.158,158.395C264.754,13.33,333.7,37.231,395.292,150.302
		c80.523,147.827,110.313,254.641,63.43,307.039c-32.898,36.77-222.441,93.899-367.712,38.61
		C-32.173,449.068-18.392,270.73,61.593,245.907C141.578,221.084,159.48,189.684,178.158,158.395z"/>
	<path fill="#8EB4FB" d="M108.477,471.131C-19.304,397.588-0.918,313.015,54.239,336.917c55.156,23.9,170.985,97.443,261.075,72.623
		c90.089-24.821,92.847-91.929,55.156-194.888s-60.672-134.215-83.654-139.73c-22.981-5.516,12.87-38.61,60.673,22.982
		s112.151,187.533,111.232,244.529c-0.919,56.995-22.063,132.376-155.358,146.165C170.068,502.386,108.477,471.131,108.477,471.131z
		"/>
	<path fill="#4375D9" d="M334.776,322.695c0,0,0.562,0.075,1.613,0.217c1.049,0.149,2.579,0.393,4.509,0.751
		c0.963,0.185,2.028,0.389,3.189,0.61c1.153,0.25,2.402,0.568,3.732,0.907c2.655,0.695,5.688,1.463,8.866,2.566
		c1.606,0.519,3.262,1.108,4.985,1.698c1.698,0.651,3.452,1.341,5.239,2.084c0.896,0.37,1.803,0.745,2.722,1.124
		c0.907,0.407,1.82,0.832,2.737,1.275c1.833,0.886,3.711,1.781,5.563,2.81c1.844,1.047,3.704,2.135,5.559,3.279
		c1.844,1.172,3.656,2.445,5.502,3.688c1.834,1.264,3.625,2.632,5.453,3.942c1.812,1.338,3.593,2.741,5.39,4.11
		c1.785,1.388,3.509,2.861,5.255,4.28c1.69,1.495,3.385,2.968,5.017,4.484c1.591,1.566,3.245,3.028,4.715,4.654
		c0.75,0.794,1.495,1.583,2.235,2.366c0.711,0.812,1.416,1.616,2.116,2.416c1.422,1.572,2.683,3.247,3.971,4.827
		c1.215,1.646,2.445,3.217,3.505,4.853c2.218,3.194,4.038,6.401,5.617,9.394c1.582,2.996,2.754,5.883,3.718,8.451
		c0.962,2.573,1.6,4.888,2.04,6.807c0.444,1.919,0.684,3.449,0.799,4.501c0.119,1.051,0.133,1.636,0.133,1.636l-0.917,0.064
		c0,0-0.072-0.52-0.304-1.513c-0.228-0.992-0.631-2.44-1.273-4.236c-0.646-1.793-1.502-3.946-2.681-6.323
		c-1.18-2.374-2.611-4.999-4.396-7.724c-1.788-2.719-3.811-5.605-6.219-8.449c-0.575-0.729-1.197-1.439-1.835-2.15
		c-0.635-0.714-1.258-1.449-1.919-2.168c-1.362-1.403-2.688-2.888-4.177-4.271c-0.73-0.702-1.467-1.411-2.208-2.124
		c-0.77-0.686-1.544-1.376-2.323-2.07c-1.532-1.411-3.204-2.716-4.82-4.094c-1.657-1.336-3.375-2.628-5.081-3.938
		c-1.768-1.239-3.503-2.526-5.301-3.731c-1.833-1.158-3.6-2.403-5.472-3.482c-1.874-1.077-3.707-2.189-5.587-3.199
		c-1.88-1.005-3.745-2.001-5.587-2.986c-1.874-0.932-3.696-1.896-5.477-2.867c-1.779-0.974-3.57-1.863-5.275-2.823
		c-1.703-0.963-3.39-1.877-5.04-2.758c-1.653-0.872-3.229-1.795-4.784-2.628c-1.557-0.835-3.071-1.622-4.508-2.426
		c-2.888-1.582-5.535-3.033-7.881-4.318c-2.364-1.333-4.426-2.494-6.123-3.451c-1.707-0.968-3.034-1.767-3.934-2.327
		c-0.896-0.569-1.373-0.873-1.373-0.873L334.776,322.695z"/>
	<path fill="#4375D9" d="M211.397,375.987c0,0,0.672-0.178,1.931-0.511c1.261-0.323,3.11-0.772,5.469-1.293
		c1.181-0.255,2.486-0.536,3.909-0.843c1.432-0.263,2.98-0.547,4.636-0.85c3.315-0.58,7.065-1.203,11.165-1.727
		c2.051-0.272,4.186-0.542,6.404-0.776c2.22-0.206,4.515-0.446,6.877-0.634c2.361-0.223,4.799-0.319,7.287-0.452
		c2.486-0.172,5.036-0.162,7.63-0.197c2.593,0.011,5.23,0.021,7.904,0.182c2.671,0.096,5.374,0.286,8.101,0.525
		c1.362,0.112,2.729,0.226,4.102,0.34c1.371,0.145,2.747,0.29,4.125,0.436c2.754,0.267,5.523,0.637,8.285,0.985
		c5.525,0.786,11.049,1.678,16.424,3.068c5.374,1.341,10.604,3.078,15.453,5.351c4.84,2.271,9.304,5.117,12.917,8.53
		c3.631,3.395,6.384,7.262,8.339,11.047c1.983,3.786,3.166,7.489,4.033,10.767c0.893,3.279,1.353,6.188,1.727,8.572
		c0.317,2.394,0.553,4.269,0.664,5.553c0.129,1.28,0.197,1.964,0.197,1.964l-0.91,0.124c0,0-0.132-0.669-0.379-1.925
		c-0.229-1.259-0.637-3.09-1.169-5.408c-0.6-2.299-1.294-5.101-2.397-8.186c-1.087-3.084-2.499-6.502-4.611-9.843
		c-2.09-3.348-4.852-6.614-8.338-9.385c-3.482-2.772-7.627-5.092-12.215-6.852c-4.584-1.776-9.569-3.029-14.699-4.032
		c-5.129-1.025-10.473-1.579-15.813-2.033c-2.686-0.147-5.355-0.388-8.046-0.4c-1.341-0.029-2.68-0.06-4.014-0.089
		c-1.338,0.007-2.672,0.015-4.001,0.021c-1.327,0.012-2.65,0.024-3.966,0.036c-1.318,0.03-2.63,0.061-3.934,0.09
		c-1.303,0.019-2.598,0.036-3.883,0.055c-1.288,0.027-2.566,0.056-3.835,0.083c-5.068-0.002-9.984,0.068-14.652-0.007
		c-4.67-0.007-9.094-0.091-13.188-0.14c-4.099-0.104-7.855-0.199-11.186-0.284c-3.349-0.147-6.269-0.276-8.673-0.383
		c-2.412-0.126-4.311-0.266-5.606-0.378c-1.297-0.121-1.988-0.187-1.988-0.187L211.397,375.987z"/>
	<path fill="#4375D9" d="M298.028,205.036c0,0,0.504,0.068,1.433,0.231c0.931,0.16,2.286,0.416,3.991,0.79
		c1.689,0.382,3.741,0.846,6.095,1.377c1.166,0.256,2.39,0.562,3.679,0.875c1.279,0.336,2.631,0.669,4.054,0.997
		c2.837,0.66,5.858,1.504,9.078,2.251c1.608,0.377,3.239,0.844,4.92,1.238c1.681,0.394,3.384,0.841,5.11,1.319
		c3.466,0.87,7.008,1.954,10.654,2.841c0.911,0.226,1.824,0.484,2.746,0.687c0.925,0.192,1.852,0.385,2.781,0.578
		c0.93,0.192,1.862,0.396,2.801,0.549l2.822,0.418c1.885,0.305,3.774,0.478,5.661,0.653c1.888,0.226,3.766,0.249,5.636,0.359
		c1.869,0.086,3.717,0.023,5.553,0.052c0.914-0.038,1.822-0.075,2.724-0.111c0.452-0.019,0.902-0.037,1.352-0.055
		c0.445-0.042,0.889-0.083,1.331-0.124c3.559-0.232,6.933-0.881,10.13-1.542c3.183-0.723,6.125-1.677,8.786-2.716
		c2.651-1.062,4.997-2.249,7.008-3.429c2.014-1.178,3.659-2.387,4.973-3.434c1.31-1.053,2.271-1.968,2.887-2.622
		c0.619-0.652,0.9-1.015,0.9-1.015l0.768,0.506c0,0-0.266,0.454-0.819,1.215c-0.552,0.766-1.418,1.84-2.632,3.111
		c-1.211,1.27-2.771,2.743-4.731,4.219c-1.956,1.477-4.262,3.043-6.944,4.463c-2.686,1.402-5.698,2.751-8.995,3.886
		c-0.82,0.295-1.669,0.529-2.523,0.798c-0.854,0.267-1.725,0.522-2.615,0.723c-0.89,0.218-1.788,0.438-2.695,0.661
		c-0.917,0.175-1.842,0.353-2.774,0.531c-0.468,0.089-0.938,0.178-1.409,0.268c-0.474,0.066-0.949,0.132-1.427,0.198
		c-0.956,0.132-1.92,0.265-2.89,0.399c-1.941,0.177-3.918,0.373-5.906,0.446c-1.987,0.043-4.003,0.171-6.012,0.095
		c-2.013-0.027-4.039-0.054-6.049-0.216l-3.025-0.176l-3.006-0.275c-1.003-0.089-2.004-0.179-3.002-0.268
		c-0.997-0.094-1.979-0.244-2.967-0.363c-3.957-0.443-7.798-1.163-11.471-2.033c-1.819-0.489-3.603-0.994-5.333-1.531
		c-1.736-0.524-3.379-1.19-4.994-1.789c-3.242-1.17-6.191-2.552-8.908-3.823c-2.724-1.237-5.133-2.655-7.266-3.83
		c-2.152-1.171-3.891-2.362-5.346-3.33c-1.449-0.971-2.573-1.771-3.333-2.333c-0.761-0.558-1.158-0.875-1.158-0.875L298.028,205.036
		z"/>
	<path fill="#4375D9" d="M124.104,342.432c151.681-34.933,178.34-11.951,224.304-2.758c45.964,9.192,49.642,12.869,49.642,12.869
		s-31.618-9.219-56.996-42.286c-30.336-39.529-30.336-58.834-28.497-118.587c1.838-59.753-19.306-111.233-33.095-108.475
		s-62.235,29.111-108.199,88.864c-42.899,55.77-81.203,63.124-111.539,74.768C137.862,243.763,124.104,342.432,124.104,342.432z"/>
	<path fill="#000E44" d="M183.857,262.455C83.656,234.876,31.257,273.486,31.257,273.486l156.277,68.946
		c0,0,50.561,10.111,72.623-4.597s6.436-50.561,6.436-50.561L183.857,262.455z"/>
	<path fill="#000E44" d="M309.799,352.543c-182.018-92.847-261.995-95.604-278.542-79.058s-31.858,86.078,135.134,99.282
		C364.036,388.396,309.799,352.543,309.799,352.543z"/>
	<path fill="#000E44" d="M290.953,508.362c7.813,16.547-45.964,44.125-12.41,44.125s27.578-18.845,37.23-27.578
		c9.653-8.733,9.193-15.168-1.379-20.684c-10.571-5.516-17.006-6.895-17.006-6.895L290.953,508.362z"/>
	<g>
		<path fill="#C0DDFD" d="M309.798,353.463c-0.132,0-0.267-0.029-0.395-0.09c-1.964-0.937-197.042-93.257-257.536-65.264
			c-0.461,0.211-1.007,0.012-1.221-0.449c-0.213-0.461-0.013-1.007,0.448-1.22c25.768-11.92,77.226-4.549,152.945,21.915
			c56.277,19.668,105.662,43.124,106.154,43.358c0.458,0.219,0.652,0.768,0.435,1.226
			C310.471,353.27,310.142,353.463,309.798,353.463z"/>
	</g>
	<path fill="#2F2A80" d="M179.261,281.759c-111.232,3.677-112.152,45.964-78.139,89.17
		C137.745,417.45,265.214,502.846,288.195,510.2c22.982,7.354,14.249-9.652,14.249-9.652s-29.417-73.542-87.331-117.667
		c-45.46-34.636-45.045-26.659-46.884-27.579c38.15,11.951,85.493,3.678,116.748-5.516c31.256-9.192,5.516-74.461-7.354-79.058
		C264.754,266.132,179.261,281.759,179.261,281.759z"/>
	<ellipse fill="#272372" cx="234.736" cy="60.079" rx="50.835" ry="60.078"/>
	<path fill="#ABC6EF" d="M194.889,143.868c-42.287,72.316-44.738,94.379-50.254,99.282c-20.225-25.74-76.2-86.322-70.479-73.542
		c9.193,20.531,17.328,60.214,46.239,93.997c28.527,33.333,45.689,12.64,59.785-3.907c14.096-16.547,39.835-57.608,39.835-57.608
		L194.889,143.868z"/>
	<path fill="#FFA014" d="M199.944,141.11c-30.336,37.69-53.318,92.387-53.318,92.387s13.33,26.659,23.901,27.579
		c10.572,0.919,20.225,0.919,20.225,0.919L221.548,205L199.944,141.11z"/>
	<g>
		<path fill="#1A6FCE" d="M190.752,262.914c-0.097,0-9.813-0.011-20.305-0.922c-10.957-0.953-24.089-26.976-24.643-28.083
			c-0.12-0.24-0.129-0.52-0.025-0.767c0.23-0.548,23.38-55.249,53.449-92.608c0.21-0.262,0.548-0.388,0.877-0.329
			c0.33,0.059,0.603,0.293,0.71,0.611l21.604,63.89c0.081,0.242,0.059,0.507-0.063,0.731l-30.796,56.995
			C191.4,262.729,191.09,262.914,190.752,262.914z M147.642,233.461c1.659,3.216,13.685,25.891,22.966,26.698
			c8.992,0.782,17.412,0.896,19.598,0.913l30.344-56.158l-20.937-61.917C171.552,178.427,149.757,228.523,147.642,233.461z"/>
	</g>
	<path fill="#FFCC5F" d="M233.958,113.072c20.225-0.919,59.365,0.593,68.026,24.361c19.765,54.237,7.354,147.084-28.497,157.197
		c-35.853,10.112-119.967-10.112-99.742-32.175c20.225-22.063,36.771-29.417,20.225-49.641
		c-16.548-20.224-21.144-34.014,0.919-68.946C209.2,121.207,233.958,113.072,233.958,113.072z"/>
	<g>
		<path fill="#1A6FCE" d="M250.841,297.832c-31.654,0.001-71.499-10.483-79.493-23.468c-2.567-4.169-1.973-8.502,1.72-12.53
			c3.987-4.349,7.871-8.168,11.298-11.537c14.421-14.18,21.66-21.297,8.893-36.901c-17.26-21.095-20.956-35.486,0.854-70.019
			c14.322-22.678,39.309-31.096,39.56-31.179c0.079-0.026,0.162-0.041,0.245-0.045c11.779-0.533,33.962-0.37,50.145,6.759
			c0.465,0.205,0.676,0.747,0.471,1.212c-0.205,0.465-0.75,0.675-1.211,0.471c-15.779-6.951-37.534-7.133-49.189-6.61
			c-1.837,0.639-24.997,9.05-38.465,30.374c-22.192,35.139-17.052,48.236-0.984,67.873c13.829,16.903,5.226,25.362-9.027,39.376
			c-3.411,3.354-7.277,7.154-11.231,11.468c-3.166,3.455-3.66,6.832-1.51,10.324c4.598,7.467,21.295,14.792,43.577,19.114
			c22.238,4.314,44.513,4.611,58.126,0.771c15.022-4.237,22.802-22.515,21.903-51.468c-0.016-0.507,0.383-0.932,0.891-0.947
			c0.507,0.011,0.931,0.383,0.947,0.891c0.927,29.878-7.327,48.805-23.241,53.294C268.33,296.968,259.921,297.832,250.841,297.832z"
			/>
	</g>
	<path fill="#C0DDFD" d="M237.176,144.327c-9.102,0-16.548-7.446-16.548-16.547V85.034c0-9.101,7.446-16.547,16.548-16.547
		c9.101,0,16.547,7.446,16.547,16.547v42.746C253.723,136.881,246.276,144.327,237.176,144.327z"/>
	<path fill="#ABC6EF" d="M253.723,93.559V77.942c0-2.362-0.884-4.523-2.329-6.185l-30.657,4.841
		c-0.063,0.44-0.108,0.887-0.108,1.344v46.081C228.073,125.386,241.817,116.67,253.723,93.559z"/>
	<ellipse fill="#C0DDFD" cx="231.059" cy="59.159" rx="30.937" ry="36.562"/>
	<g>
		<path fill="#C0DDFD" d="M301.526,499.629c-0.344,0-0.673-0.193-0.83-0.523c-0.422-0.881-0.9-1.898-1.438-3.043
			c-37.23-79.174-90.067-129.949-157.043-150.916c-0.484-0.151-0.755-0.667-0.603-1.151c0.152-0.485,0.669-0.759,1.151-0.603
			c43.231,13.533,81.112,39.781,112.589,78.016c25.261,30.685,39.492,60.948,45.569,73.872c0.536,1.14,1.013,2.154,1.433,3.032
			c0.22,0.458,0.025,1.007-0.433,1.226C301.794,499.6,301.659,499.629,301.526,499.629z"/>
	</g>
	<path fill="#000E44" d="M302.904,358.519c15.627-18.386,17.926-18.845,36.312-13.023c22.693,7.187,34.933-16.24,38.149-4.442
		c2.642,9.685-10.112,36.312-45.964,33.094s-45.504-5.516-45.504-5.516L302.904,358.519z"/>
	<g>
		<path fill="#C0DDFD" d="M209.496,363.013c-15.921,0.001-27.419-1.181-27.65-1.205c-0.505-0.054-0.871-0.506-0.817-1.011
			c0.053-0.505,0.495-0.878,1.011-0.817c0.47,0.05,47.208,4.844,82.928-5.104c36.387-10.133,38.26-16.283,32.438-46.282
			c-0.097-0.498,0.229-0.98,0.728-1.077c0.497-0.1,0.98,0.229,1.077,0.728c5.912,30.468,3.653,37.987-33.749,48.403
			C247.132,361.751,225.951,363.013,209.496,363.013z"/>
	</g>
	<path fill="#C0DDFD" d="M284.978,120.579c42.077,6.011,41.062,115.216,41.675,139.73c0.612,24.514-26.966,29.417-77.22,15.321
		c-50.254-14.096-92.541-56.996-92.541-56.996s4.29-3.677,9.193-3.677c4.902,0,113.99,29.417,118.893,26.965
		c4.903-2.451-6.128-21.45-13.482-61.285S276.398,119.354,284.978,120.579z"/>
	<path fill="#8EB4FB" d="M162.372,228.452l-65.534-32.517c-4.668-2.316-8.078-6.57-9.323-11.63L72.45,123.074
		c-0.778-3.164,2.5-5.792,5.419-4.344l65.534,32.517c4.668,2.316,8.078,6.57,9.322,11.63l15.065,61.231
		C168.569,227.272,165.291,229.9,162.372,228.452z"/>
	<path fill="#1A6FCE" d="M159.308,229.677L93.773,197.16c-4.667-2.316-8.078-6.57-9.322-11.63L69.386,124.3
		c-0.778-3.165,2.5-5.792,5.419-4.344l65.534,32.517c4.668,2.316,8.078,6.57,9.323,11.63l15.064,61.231
		C165.505,228.498,162.227,231.125,159.308,229.677z"/>
	
		<ellipse transform="matrix(0.9097 -0.4154 0.4154 0.9097 -61.8814 62.98)" fill="#8EB4FB" cx="113.839" cy="173.744" rx="8.733" ry="12.41"/>
	<path fill="#ABC6EF" d="M84.314,196.267c-12.87-29.724-20.685-27.349-16.088-43.896c4.597-16.547,8.075-30.566,13.284-16.471
		s-1.532,38.916,4.29,49.947c5.822,11.032,8.273,13.177,8.273,13.177L84.314,196.267z"/>
	<path fill="#C0DDFD" d="M174.971,233.957c-12.257-8.58-24.208-15.321-31.562-31.868c-7.354-16.547-7.048-35.852,0-30.03
		s16.547,26.966,16.547,26.966s0.307-6.435-2.758-18.386c4.29,2.451,25.74,49.947,25.74,49.947L174.971,233.957z"/>
	<path fill="#FFCC5F" d="M280.382,233.957c20.684,14.249,53.777,10.112,53.777,10.112s-0.576-50.543-15.168-83.654
		c-11.95-27.119-17.007-39.989-36.312-41.368s-20.684,41.368-16.087,71.244C271.188,220.167,280.382,233.957,280.382,233.957z"/>
	<g>
		<path fill="#1A6FCE" d="M322.811,245.577c-11.605,0-29.656-1.705-42.95-10.863c-0.096-0.066-0.179-0.15-0.243-0.247
			c-0.38-0.57-9.359-14.3-13.933-44.036c-0.077-0.501,0.267-0.971,0.769-1.048c0.503-0.08,0.972,0.268,1.048,0.769
			c4.269,27.746,12.588,41.616,13.555,43.153c18.375,12.539,46.969,10.444,52.167,9.939c-0.162-6.716-1.745-52.216-15.072-82.458
			l-1.053-2.391c-11.317-25.72-16.002-36.366-34.177-37.664c-0.507-0.036-0.888-0.476-0.852-0.982
			c0.036-0.507,0.478-0.889,0.982-0.852c19.28,1.377,24.435,13.091,35.729,38.758l1.052,2.39
			c14.5,32.902,15.24,83.507,15.246,84.015c0.006,0.467-0.341,0.864-0.805,0.922C333.783,245.042,329.305,245.577,322.811,245.577z"
			/>
	</g>
	<g>
		<path fill="#1A6FCE" d="M265.98,151.221c-0.024,0-0.05-0.001-0.074-0.003c-0.506-0.041-0.884-0.483-0.843-0.989
			c0.005-0.07,0.142-1.736,0.717-4.362c0.109-0.496,0.607-0.808,1.095-0.701c0.496,0.108,0.811,0.599,0.702,1.095
			c-0.546,2.491-0.68,4.099-0.682,4.114C266.857,150.856,266.455,151.221,265.98,151.221z"/>
	</g>
	<g>
		<path fill="#1A6FCE" d="M269.771,137.568c-0.125,0-0.252-0.026-0.374-0.08c-0.463-0.207-0.672-0.75-0.465-1.214
			c1.642-3.678,3.693-7.014,6.097-9.914c0.323-0.392,0.902-0.447,1.295-0.122c0.391,0.324,0.445,0.904,0.121,1.294
			c-2.298,2.772-4.26,5.965-5.833,9.49C270.458,137.366,270.123,137.568,269.771,137.568z"/>
	</g>
	<g>
		<path fill="#1A6FCE" d="M281.048,122.637c-0.271,0-0.537-0.118-0.719-0.345c-0.317-0.396-0.253-0.975,0.144-1.292
			c0.644-0.515,1.313-1.014,1.99-1.482c0.417-0.291,0.99-0.186,1.279,0.232c0.289,0.417,0.186,0.99-0.232,1.279
			c-0.642,0.445-1.277,0.919-1.889,1.407C281.451,122.571,281.249,122.637,281.048,122.637z"/>
	</g>
	<path fill="#272372" d="M204.081,17.007c6.436,45.044,39.989,48.722,43.666,48.262s28.498,17.466,13.33,36.771
		c-15.169,19.305-23.901,33.554-21.604,56.536c2.298,22.982,22.522,17.467,16.547,27.119c-5.975,9.652-8.732,25.28-1.379,28.038
		c7.354,2.758-6.435-7.814,3.678-14.708c10.111-6.895,28.957-22.522,12.41-38.15s-4.597-36.771,11.95-43.666
		s24.82-56.996-0.46-79.518C256.94,15.168,237.635,6.435,237.635,6.435L204.081,17.007z"/>
	
		<ellipse transform="matrix(0.9009 0.434 -0.434 0.9009 53.7298 -106.6331)" fill="#C0DDFD" cx="260.387" cy="64.35" rx="7.584" ry="10.113"/>
</g>
</svg>
