<?xml version="1.0" encoding="utf-8"?>
<!-- Generator: Adobe Illustrator 16.0.0, SVG Export Plug-In . SVG Version: 6.00 Build 0)  -->
<!DOCTYPE svg PUBLIC "-//W3C//DTD SVG 1.1//EN" "http://www.w3.org/Graphics/SVG/1.1/DTD/svg11.dtd">
<svg version="1.1" id="Layer_1" xmlns="http://www.w3.org/2000/svg" xmlns:xlink="http://www.w3.org/1999/xlink" x="0px" y="0px"
	 width="1025px" height="725px" viewBox="0 0 1025 725" enable-background="new 0 0 1025 725" xml:space="preserve">
<g>
	<g>
		<circle fill="#D4E6FC" cx="404.097" cy="216.116" r="203.766"/>
		<g>
			<path fill="#FFFFFF" d="M487.633,103.396c1.763,2.734,4.471,4.713,6.631,7.151c5.355,6.051,6.953,15.139,3.977,22.633
				c-0.923,2.322-2.264,4.582-2.306,7.078c-0.104,6.264,7.468,9.577,13.744,10.257c6.275,0.68,13.675,0.946,17.198,6.144
				c3.974,5.87-0.417,14.397-6.896,17.353c-6.476,2.953-13.992,1.984-21.044,0.951c-19.47-2.852-43.525-3.803-54.224,12.59
				c-7.694,11.791-4.485,27.365,0.08,40.662c0.807,2.353,1.708,4.786,3.52,6.501c2.367,2.242,5.805,2.835,8.911,3.856
				c20.042,6.588,26.941,32.148,23.157,52.76c-3.781,20.615-14.819,39.408-18.36,60.064c29.904-6.984,53.314-29.478,74.389-51.657
				c10.819-11.383,22.109-24.508,22.137-40.154c0.019-11.242-5.896-21.651-7.517-32.777c-1.622-11.126,4.096-25.261,15.418-25.574
				c4.229-0.115,8.856,1.718,12.457-0.482c2.713-1.656,3.743-5.014,4.431-8.099c7.669-34.459-3.151-71.632-25.754-98.477
				c-9.183-10.906-26.17-29.191-41.877-28.182C501.506,66.904,477.963,88.403,487.633,103.396z"/>
			<path fill="#FFFFFF" d="M538.807,328.289c-1.25,4.482-2.502,8.964-3.752,13.449c-0.931,3.339-1.338,7.897,1.846,9.32
				c2.513,1.125,5.324-0.757,7.226-2.741c7.624-7.948,11.226-19.523,9.447-30.354c-1.367-4.376-7.89-5.419-11.469-2.52
				c-3.576,2.896-4.39,8.148-3.338,12.609"/>
			<path fill="#FFFFFF" d="M281.224,335.55c-7.908-19.297-4.591-41.02-3.393-61.817c1.2-20.798-0.868-44.027-16.174-58.283
				c-12.081-11.252-30.589-14.949-40.328-28.252c-7.899-10.791-7.964-25.73-3.466-38.299c4.5-12.567,12.954-23.294,21.346-33.714
				c10.511-13.052,21.363-26.205,35.325-35.539c13.963-9.336,31.718-14.466,47.893-9.828c-6.511,11.301-23.012,12.671-31.492,22.604
				c-9.33,10.932-3.261,30.702,10.624,34.615c3.129,0.882,6.497,1.049,9.643,0.23c5.755-1.499,10.113-6,14.713-9.749
				c7.539-6.144,17.092-10.746,26.777-9.581c9.684,1.162,18.776,9.727,17.802,19.36c-0.538,5.32-3.83,9.925-7.136,14.146
				c-9.63,12.296-20.349,23.755-31.988,34.198c-8.93,8.009-18.49,15.515-25.673,25.099c-7.184,9.584-11.826,21.845-9.226,33.506
				c10.685-12.774,28.245-19.513,44.81-17.198c16.565,2.315,31.565,13.609,38.276,28.817c2.664,6.033,5.635,13.833,12.266,14.11
				c5.516,6.28,2.589,16.726-3.797,22.13c-6.388,5.402-15.031,7.141-23.233,8.906c-8.203,1.767-16.843,4.012-22.628,10.045
				c-6.351,6.626-7.88,16.334-9.111,25.396c-1.595,11.746-3.122,24.092,1.23,35.125c1.497,3.798,3.671,7.372,4.459,11.375
				c4.257,21.656-19.019,4.063-24.97-0.574C300.565,362.089,287.732,351.431,281.224,335.55z"/>
			<path fill="#FFFFFF" d="M354.406,52.784c3.245-0.125,6.565-0.24,9.659,0.737c7.214,2.278,11.369,9.904,12.868,17.269
				c1.499,7.367,1.101,15.045,2.939,22.334c1.318,5.221,4.464,10.711,9.763,11.854c5.84,1.262,11.499-3.534,13.757-9.023
				c2.259-5.492,2.161-11.609,3.029-17.478c3.087-20.854,19.908-39.033,40.582-43.862c-2.901-6.296-9.328-10.436-16.054-12.28
				c-18.958-5.201-39.495-2.89-58.267,1.95c-9.619,2.48-19.04,5.765-28.137,9.751c-5.273,2.311-19.266,6.866-21.376,12.69
				C319.467,56.946,348.201,53.022,354.406,52.784z"/>
			<path fill="#FFFFFF" d="M443.353,83.173c-2.807-2.556-7.889,0.428-8.11,4.202c-0.221,3.777,2.89,7.036,6.362,8.59
				c3.473,1.558,7.355,1.899,11.029,2.909c1.564,0.429,3.223,0.986,4.774,0.503c2.671-0.833,3.52-4.218,3.217-6.981
				c-0.304-2.76-1.301-5.562-0.577-8.244c-3.551-2.085-7.723-3.114-11.842-2.918"/>
		</g>
	</g>
	<g>
		<path fill="#0C5AE5" stroke="#0C5AE5" stroke-width="0.607" stroke-miterlimit="10" d="M24.902,350.997
			c23.151,4.869,54.994-1.035,63.557,31.721c5.906,22.595-6.179,46.217,21.094,57.544c10.812,4.492,22.052,4.498,29.702,14.529
			c6.647,8.716,7.269,20.696,7.758,31.203c0.421,9.033-2.014,20.671,0.567,29.442c4.218,14.32,16.638,14.901,28.496,20.706
			c11.285,5.524,21.532,14.097,25.37,26.636c5.075,16.586-5.447,30.41-5.054,46.191c0,0-9.93,61.837-71.177,35.17
			c-14.476-6.302-29.669-9.941-39.761-24.048c-7.628-10.666-8.212-24.014-5.744-36.331c2.593-12.949,9.678-23.166,0.864-35.216
			c-5.398-7.382-16.123-12.518-23.041-18.339c-8.047-6.771-17.186-14.544-20.071-25.12c-3.32-12.17,3.501-21.102,6.503-32.416
			c7.572-28.547-18.532-33.295-32.892-51.717c-20.817-26.702,3.219-48.407,13.417-69.753L24.902,350.997z"/>
		
			<line fill="none" stroke="#FFFFFF" stroke-width="0.607" stroke-linecap="round" stroke-linejoin="round" stroke-miterlimit="10" x1="49.741" y1="401.784" x2="178.011" y2="661.382"/>
		
			<line fill="none" stroke="#FFFFFF" stroke-width="0.607" stroke-linecap="round" stroke-linejoin="round" stroke-miterlimit="10" x1="112.367" y1="464.521" x2="103.023" y2="509.621"/>
		
			<line fill="none" stroke="#FFFFFF" stroke-width="0.607" stroke-linecap="round" stroke-linejoin="round" stroke-miterlimit="10" x1="148.824" y1="602.314" x2="108.203" y2="594.351"/>
		
			<line fill="none" stroke="#FFFFFF" stroke-width="0.607" stroke-linecap="round" stroke-linejoin="round" stroke-miterlimit="10" x1="86.946" y1="477.082" x2="56.07" y2="463.241"/>
	</g>
	<g>
		<path fill="#D4E6FC" d="M786.866,662.803c0,0,192.177-63.937,235.287-292.182c-208.638,39.16-279.999,280.575-279.999,280.575
			L786.866,662.803z"/>
		
			<line fill="none" stroke="#0C5AE5" stroke-width="0.607" stroke-linecap="round" stroke-linejoin="round" stroke-miterlimit="10" x1="985.188" y1="480.813" x2="894.726" y2="510.335"/>
		
			<line fill="none" stroke="#0C5AE5" stroke-width="0.607" stroke-linecap="round" stroke-linejoin="round" stroke-miterlimit="10" x1="860.452" y1="547.914" x2="867.445" y2="450.568"/>
		
			<line fill="none" stroke="#0C5AE5" stroke-width="0.607" stroke-linecap="round" stroke-linejoin="round" stroke-miterlimit="10" x1="1022.153" y1="370.622" x2="760.42" y2="657.592"/>
	</g>
	<g>
		<path fill="#0C5AE5" stroke="#0C5AE5" stroke-width="0.607" stroke-miterlimit="10" d="M933.451,434.44l-2.986-22.875
			l-7.112,0.938l-14.031-18.326l2.755-6.626l-21.311-8.854l-2.743,6.623l-22.888,2.986l-4.357-5.689l-18.325,14.021l4.372,5.701
			l-8.856,21.299l-7.111,0.935l2.984,22.875l7.112-0.922l14.019,18.313l-2.755,6.623l21.313,8.856l2.753-6.626l22.876-2.985
			l4.369,5.7l18.313-14.03l-4.357-5.688l8.856-21.312L933.451,434.44z M884.537,447.808c-10.109,1.317-19.376-5.807-20.696-15.903
			c-1.32-10.111,5.808-19.377,15.916-20.698c10.113-1.318,19.376,5.807,20.696,15.916
			C901.772,437.233,894.647,446.5,884.537,447.808z"/>
	</g>
	<g>
		<polygon fill="#D4E6FC" points="791.976,191.393 789.244,174.131 733.747,182.913 736.479,200.174 692.809,235.528 
			676.495,229.261 656.352,281.717 672.664,287.98 681.445,343.477 667.861,354.473 703.218,398.144 716.8,387.151 769.252,407.294 
			771.983,424.553 827.48,415.773 824.748,398.513 868.419,363.157 884.734,369.424 904.876,316.971 888.565,310.705 
			879.784,255.208 893.366,244.212 858.01,200.542 844.428,211.537 		"/>
		
			<circle fill="#FFFFFF" stroke="#0C5AE5" stroke-width="0.607" stroke-linecap="round" stroke-linejoin="round" stroke-miterlimit="10" cx="780.614" cy="299.342" r="44.953"/>
	</g>
	
		<path fill="#FFFFFF" stroke="#0C5AE5" stroke-width="0.607" stroke-linecap="round" stroke-linejoin="round" stroke-miterlimit="10" d="
		M784.19,275.342H196.427c-10.383,0-18.802,8.418-18.802,18.803v347.258h625.368V294.145
		C802.993,283.761,794.574,275.342,784.19,275.342z"/>
	
		<rect x="206.373" y="301.154" fill="#FFFFFF" stroke="#0C5AE5" stroke-width="0.607" stroke-linecap="round" stroke-linejoin="round" stroke-miterlimit="10" width="567.871" height="312.006"/>
	
		<path fill="#FFFFFF" stroke="#0C5AE5" stroke-width="0.607" stroke-linecap="round" stroke-linejoin="round" stroke-miterlimit="10" d="
		M814.76,667.853H165.857c-9.769,0-17.687-7.921-17.687-17.688v-11.192h684.277v11.192
		C832.447,659.932,824.527,667.853,814.76,667.853z"/>
	<path fill="#0C5AE5" stroke="#0C5AE5" stroke-width="0.607" stroke-miterlimit="10" d="M528.285,653.195h-75.953
		c-5.89,0-10.662-4.774-10.662-10.662v-2.588h97.277v2.588C538.947,648.42,534.176,653.195,528.285,653.195z"/>
	
		<polygon fill="#FFFFFF" stroke="#0C5AE5" stroke-width="0.607" stroke-linecap="round" stroke-linejoin="round" stroke-miterlimit="10" points="
		834.313,356.548 834.313,543.499 544.872,543.499 497.279,592.057 497.279,543.499 436.362,543.499 436.362,356.548 	"/>
	
		<line fill="#D4E6FC" stroke="#0C5AE5" stroke-width="0.607" stroke-linecap="round" stroke-linejoin="round" stroke-miterlimit="10" x1="25.333" y1="667.853" x2="958.374" y2="667.853"/>
	<g>
		
			<path fill="#FFFFFF" stroke="#0C5AE5" stroke-width="0.607" stroke-linecap="round" stroke-linejoin="round" stroke-miterlimit="10" d="
			M588.269,141.091h-0.051c-14.693,0.003-26.604,11.544-26.604,25.78c0,4.433,1.127,8.616,3.164,12.261l3.125,4.863
			c2.449,3.812,4.063,8.071,4.738,12.513l1.233,8.111h14.343h14.354l1.596-8.991c0.688-3.873,2.087-7.593,4.136-10.983l3.342-5.525
			c2.028-3.633,3.185-7.791,3.19-12.209C614.858,152.727,602.91,141.115,588.269,141.091z"/>
		
			<polygon fill="none" stroke="#0C5AE5" stroke-width="0.607" stroke-linecap="round" stroke-linejoin="round" stroke-miterlimit="10" points="
			597.626,167.616 578.812,167.616 583.668,208.191 592.769,208.191 		"/>
		<polygon fill="#0C5AE5" stroke="#0C5AE5" stroke-width="0.607" stroke-miterlimit="10" points="588.218,204.619 573.875,204.619 
			573.875,217.542 588.218,217.542 602.717,217.542 602.717,204.619 		"/>
	</g>
	
		<line fill="#D4E6FC" stroke="#0C5AE5" stroke-width="0.607" stroke-linecap="round" stroke-linejoin="round" stroke-miterlimit="10" x1="220.592" y1="275.592" x2="525.085" y2="275.592"/>
	<g>
		
			<line fill="none" stroke="#0C5AE5" stroke-width="0.607" stroke-linecap="round" stroke-linejoin="round" stroke-miterlimit="10" x1="588.296" y1="131.517" x2="588.296" y2="117.06"/>
		
			<line fill="none" stroke="#0C5AE5" stroke-width="0.607" stroke-linecap="round" stroke-linejoin="round" stroke-miterlimit="10" x1="553.403" y1="166.409" x2="538.947" y2="166.409"/>
		
			<line fill="none" stroke="#0C5AE5" stroke-width="0.607" stroke-linecap="round" stroke-linejoin="round" stroke-miterlimit="10" x1="637.645" y1="166.409" x2="623.188" y2="166.409"/>
		
			<line fill="none" stroke="#0C5AE5" stroke-width="0.607" stroke-linecap="round" stroke-linejoin="round" stroke-miterlimit="10" x1="563.62" y1="191.083" x2="553.403" y2="201.301"/>
		
			<line fill="none" stroke="#0C5AE5" stroke-width="0.607" stroke-linecap="round" stroke-linejoin="round" stroke-miterlimit="10" x1="623.188" y1="131.517" x2="612.972" y2="141.734"/>
		
			<line fill="none" stroke="#0C5AE5" stroke-width="0.607" stroke-linecap="round" stroke-linejoin="round" stroke-miterlimit="10" x1="563.62" y1="141.734" x2="553.403" y2="131.517"/>
		
			<line fill="none" stroke="#0C5AE5" stroke-width="0.607" stroke-linecap="round" stroke-linejoin="round" stroke-miterlimit="10" x1="623.188" y1="201.301" x2="612.972" y2="191.083"/>
	</g>
	<g>
		<polygon fill="#0C5AE5" stroke="#0C5AE5" stroke-width="0.607" stroke-miterlimit="10" points="301.808,439.346 477.245,439.346 
			477.245,335.242 301.808,361.456 		"/>
		<path fill="#0C5AE5" stroke="#0C5AE5" stroke-width="0.607" stroke-miterlimit="10" d="M368.9,163.218
			c0,0,20.186-26.871,27.605-29.344c8.821,4.449,23.736,19.288,23.736,19.288l-7.418,7.911l9.57-4.334l10.165,10.492l-34.41,33.355
			L368.9,163.218z"/>
		
			<path fill="#FFFFFF" stroke="#0C5AE5" stroke-width="0.607" stroke-linecap="round" stroke-linejoin="round" stroke-miterlimit="10" d="
			M547.242,264.432c0,0-0.991-21.511,8.528-28.311c4.487-3.205,22.626-10.386,22.626-10.386l3.709,7.047l-12.241,6.306l26.336,1.113
			l13.723-12.269l5.192,4.108l-15.949,24.85l-20.397,7.542H547.242z"/>
		<polygon fill="#0C5AE5" stroke="#0C5AE5" stroke-width="0.607" stroke-miterlimit="10" points="299.269,712.348 326.655,684.173 
			349.789,684.173 349.789,712.348 		"/>
		<polygon fill="#0C5AE5" stroke="#0C5AE5" stroke-width="0.607" stroke-miterlimit="10" points="449.916,712.348 432.19,684.173 
			409.056,684.173 409.056,712.348 		"/>
		<polygon fill="#D4E6FC" points="463.461,438.827 463.461,691.635 392.498,691.635 392.498,489.968 383.256,489.968 
			370.244,691.635 299.269,691.635 312.281,489.968 315.589,438.827 		"/>
		<path fill="#0C5AE5" stroke="#0C5AE5" stroke-width="0.607" stroke-miterlimit="10" d="M497.273,313.886
			c0-58.448-44.765-84.519-103.197-85.911c-1.193-0.028-2.402-0.043-3.624-0.043c-87.904,0-115.636,63.895-119.801,74.923
			c-9.273,24.548-35.368,101.531,48.704,137.138c25.299,10.716,43.363-15.271,56.874-22.221
			c23.544-12.114,32.029-15.145,32.029-15.145L497.273,313.886z"/>
		<g>
			
				<rect x="300.334" y="342.977" transform="matrix(0.7071 0.7071 -0.7071 0.7071 413.588 -134.7624)" fill="#FFFFFF" stroke="#0C5AE5" stroke-width="0.607" stroke-linecap="round" stroke-linejoin="round" stroke-miterlimit="10" width="138.27" height="177.791"/>
			
				<rect x="319.819" y="351.037" transform="matrix(0.7071 0.7071 -0.7071 0.7071 412.1505 -138.2563)" fill="#FFFFFF" stroke="#0C5AE5" stroke-width="0.607" stroke-linecap="round" stroke-linejoin="round" stroke-miterlimit="10" width="106.29" height="154.68"/>
			
				<path fill="#FFFFFF" stroke="#0C5AE5" stroke-width="0.607" stroke-linecap="round" stroke-linejoin="round" stroke-miterlimit="10" d="
				M458.332,385.087l-13.092,13.092l-42.081-42.081l13.092-13.092l14.344,14.346c3.75-2.666,8.977-2.301,12.334,1.054
				c3.358,3.358,3.723,8.586,1.057,12.334L458.332,385.087z"/>
			
				<polyline fill="none" stroke="#0C5AE5" stroke-width="0.607" stroke-linecap="round" stroke-linejoin="round" stroke-miterlimit="10" points="
				369.834,370.622 368.9,376.544 379.811,373.116 			"/>
			
				<line fill="none" stroke="#0C5AE5" stroke-width="0.607" stroke-linecap="round" stroke-linejoin="round" stroke-miterlimit="10" x1="380.329" y1="380.799" x2="427.346" y2="427.819"/>
			
				<polyline fill="none" stroke="#0C5AE5" stroke-width="0.607" stroke-linecap="round" stroke-linejoin="round" stroke-miterlimit="10" points="
				357.075,383.384 356.14,389.304 367.048,385.875 			"/>
			
				<line fill="none" stroke="#0C5AE5" stroke-width="0.607" stroke-linecap="round" stroke-linejoin="round" stroke-miterlimit="10" x1="367.566" y1="393.562" x2="414.583" y2="440.579"/>
			
				<polyline fill="none" stroke="#0C5AE5" stroke-width="0.607" stroke-linecap="round" stroke-linejoin="round" stroke-miterlimit="10" points="
				344.312,396.144 343.377,402.067 354.286,398.638 			"/>
			
				<line fill="none" stroke="#0C5AE5" stroke-width="0.607" stroke-linecap="round" stroke-linejoin="round" stroke-miterlimit="10" x1="354.804" y1="406.325" x2="401.82" y2="453.343"/>
		</g>
		
			<path fill="#FFFFFF" stroke="#0C5AE5" stroke-width="0.607" stroke-linecap="round" stroke-linejoin="round" stroke-miterlimit="10" d="
			M386.176,243.756L386.176,243.756c8.85,0,16.023-7.171,16.023-16.021v-52.076h-32.045v52.076
			C370.154,236.584,377.326,243.756,386.176,243.756z"/>
		
			<path fill="#FFFFFF" stroke="#0C5AE5" stroke-width="0.607" stroke-linecap="round" stroke-linejoin="round" stroke-miterlimit="10" d="
			M416.199,191.993c-1.915,4.525-7.141,6.643-11.668,4.73c-0.699-0.296-1.351-0.675-1.92-1.123c-1.821,2.734-4.151,5-6.81,6.722
			c-6.381,4.134-14.638,5.134-22.17,1.946c-12.08-5.108-17.723-19.031-12.614-31.111c5.11-12.078,19.033-17.723,31.111-12.613
			c8.188,3.464,13.426,10.978,14.332,19.222c1.636-0.301,3.37-0.134,5.01,0.558C415.995,182.24,418.113,187.466,416.199,191.993z"/>
		
			<path fill="none" stroke="#0C5AE5" stroke-width="0.607" stroke-linecap="round" stroke-linejoin="round" stroke-miterlimit="10" d="
			M402.4,189.885c0,0,2.014-4.031,5.849-1.749"/>
		<path fill="#0C5AE5" stroke="#0C5AE5" stroke-width="0.607" stroke-miterlimit="10" d="M458.332,343.006
			c0,0,9.386,42.751,61.808,33.521c52.423-9.231,65.279-112.095,65.279-112.095h-40.552l-29.674,59.346
			c0,0-21.512-55.76-48.452-74.866C450.306,237.257,458.332,343.006,458.332,343.006z"/>
		
			<line fill="none" stroke="#FFFFFF" stroke-width="0.607" stroke-linecap="round" stroke-linejoin="round" stroke-miterlimit="10" x1="476.622" y1="326.251" x2="476.622" y2="370.622"/>
		<path fill="#0C5AE5" stroke="#0C5AE5" stroke-width="0.607" stroke-miterlimit="10" d="M392.129,160.545
			c10.271,5.104,14.031,17.713,7.071,24.391c7.261-5.169,7.261-5.169,7.261-5.169l11.558-7.325
			C418.019,172.442,396.256,156.42,392.129,160.545z"/>
		<g>
			
				<polygon fill="#FFFFFF" stroke="#0C5AE5" stroke-width="0.607" stroke-linecap="round" stroke-linejoin="round" stroke-miterlimit="10" points="
				355.135,430.458 369.891,445.302 381.773,459.355 376.775,464.356 381.168,470.136 356.536,489.267 324.528,450.803 			"/>
			
				<line fill="none" stroke="#0C5AE5" stroke-width="0.607" stroke-linecap="round" stroke-linejoin="round" stroke-miterlimit="10" x1="376.046" y1="473.83" x2="365.455" y2="461.759"/>
			
				<line fill="none" stroke="#0C5AE5" stroke-width="0.607" stroke-linecap="round" stroke-linejoin="round" stroke-miterlimit="10" x1="369.105" y1="478.583" x2="358.514" y2="466.512"/>
			
				<line fill="none" stroke="#0C5AE5" stroke-width="0.607" stroke-linecap="round" stroke-linejoin="round" stroke-miterlimit="10" x1="362.58" y1="483.804" x2="351.989" y2="471.733"/>
			
				<line fill="none" stroke="#0C5AE5" stroke-width="0.607" stroke-linecap="round" stroke-linejoin="round" stroke-miterlimit="10" x1="376.917" y1="464.606" x2="369.105" y2="455.584"/>
		</g>
		<path fill="#0C5AE5" stroke="#0C5AE5" stroke-width="0.607" stroke-miterlimit="10" d="M315.648,328.475
			c-6.956,14.837-5.075,30.144,0.795,44.18c12.915,30.876,45.151,55.593,45.151,55.593l-40.81,30.415
			c0,0-54.81-46.396-57.625-77.794"/>
		
			<path fill="none" stroke="#FFFFFF" stroke-width="0.607" stroke-linecap="round" stroke-linejoin="round" stroke-miterlimit="10" d="
			M315.648,328.475c-6.956,14.837-5.075,30.144,0.795,44.18"/>
	</g>
	
		<path fill="none" stroke="#0C5AE5" stroke-width="0.607" stroke-linecap="round" stroke-linejoin="round" stroke-miterlimit="10" stroke-dasharray="6.1575,3.0788" d="
		M134.238,335.242c0,0-84.112-43.417-34.949-124.162"/>
	
		<circle fill="none" stroke="#0C5AE5" stroke-width="0.607" stroke-linecap="round" stroke-linejoin="round" stroke-miterlimit="10" stroke-dasharray="6.1575,3.0788" cx="172.764" cy="141.242" r="79.563"/>
	<g>
		
			<path fill="#FFFFFF" stroke="#0C5AE5" stroke-width="0.607" stroke-linecap="round" stroke-linejoin="round" stroke-miterlimit="10" d="
			M137.457,124.627v37.083c0,5.903,15.589,10.687,34.819,10.687c19.229,0,34.817-4.784,34.817-10.687v-37.083H137.457z"/>
		
			<line fill="#FFFFFF" stroke="#0C5AE5" stroke-width="0.607" stroke-linecap="round" stroke-linejoin="round" stroke-miterlimit="10" x1="230.508" y1="126.924" x2="230.508" y2="162.813"/>
		
			<polygon fill="#FFFFFF" stroke="#0C5AE5" stroke-width="0.607" stroke-linecap="round" stroke-linejoin="round" stroke-miterlimit="10" points="
			230.508,126.924 172.034,144.03 113.561,126.924 172.034,110.314 		"/>
		
			<path fill="#FFFFFF" stroke="#0C5AE5" stroke-width="0.607" stroke-linecap="round" stroke-linejoin="round" stroke-miterlimit="10" d="
			M230.508,171.374c0,0-10.054-13.497,0-23.551C239.496,157.493,230.508,171.374,230.508,171.374z"/>
	</g>
	<g>
		<path fill="#D4E6FC" d="M639.066,499.177h-97.47V394.497c0-4.343,3.521-7.866,7.868-7.866h89.602V499.177z"/>
		<path fill="#0C5AE5" stroke="#0C5AE5" stroke-width="0.607" stroke-miterlimit="10" d="M562.232,499.177h-20.636V394.497
			c0-4.343,3.521-7.866,7.868-7.866h12.768V499.177z"/>
		
			<path fill="#FFFFFF" stroke="#0C5AE5" stroke-width="0.607" stroke-linecap="round" stroke-linejoin="round" stroke-miterlimit="10" d="
			M639.066,492.679h-88.604c-4.896,0-8.865,3.969-8.865,8.864l0,0c0,4.896,3.969,8.862,8.865,8.862h88.604V492.679z"/>
		
			<rect x="576.268" y="408.917" fill="#0C5AE5" stroke="#0C5AE5" stroke-width="0.607" stroke-miterlimit="10" width="50.271" height="24.074"/>
		<polygon fill="#0C5AE5" stroke="#0C5AE5" stroke-width="0.607" stroke-miterlimit="10" points="612.376,492.679 612.376,514.505 
			619.409,510.277 626.44,514.505 626.44,492.679 		"/>
		
			<path fill="#FFFFFF" stroke="#0C5AE5" stroke-width="0.607" stroke-linecap="round" stroke-linejoin="round" stroke-miterlimit="10" d="
			M541.597,501.543"/>
	</g>
	
		<line fill="none" stroke="#0C5AE5" stroke-width="0.607" stroke-linecap="round" stroke-linejoin="round" stroke-miterlimit="10" x1="672.843" y1="404.308" x2="747.614" y2="404.308"/>
	
		<line fill="none" stroke="#0C5AE5" stroke-width="0.607" stroke-linecap="round" stroke-linejoin="round" stroke-miterlimit="10" x1="672.843" y1="440.579" x2="795.699" y2="440.579"/>
	
		<line fill="none" stroke="#0C5AE5" stroke-width="0.607" stroke-linecap="round" stroke-linejoin="round" stroke-miterlimit="10" x1="672.843" y1="457.159" x2="795.699" y2="457.159"/>
	
		<line fill="none" stroke="#0C5AE5" stroke-width="0.607" stroke-linecap="round" stroke-linejoin="round" stroke-miterlimit="10" x1="672.843" y1="473.736" x2="795.699" y2="473.736"/>
	
		<line fill="none" stroke="#0C5AE5" stroke-width="0.607" stroke-linecap="round" stroke-linejoin="round" stroke-miterlimit="10" x1="672.843" y1="490.315" x2="795.699" y2="490.315"/>
	<g>
		
			<rect x="672.438" y="107.263" fill="#FFFFFF" stroke="#0C5AE5" stroke-width="0.607" stroke-linecap="round" stroke-linejoin="round" stroke-miterlimit="10" width="144.294" height="97.231"/>
		
			<rect x="657.636" y="95.77" fill="#FFFFFF" stroke="#0C5AE5" stroke-width="0.607" stroke-linecap="round" stroke-linejoin="round" stroke-miterlimit="10" width="173.899" height="19.655"/>
		
			<line fill="#FFFFFF" stroke="#0C5AE5" stroke-width="0.607" stroke-linecap="round" stroke-linejoin="round" stroke-miterlimit="10" x1="744.585" y1="206.409" x2="744.585" y2="218.137"/>
		<circle fill="#0C5AE5" stroke="#0C5AE5" stroke-width="0.607" stroke-miterlimit="10" cx="744.585" cy="227.713" r="8.426"/>
		<text transform="matrix(1 0 0 1 736.4883 182.9702)" fill="#0C5AE5" font-family="'Roboto-Black'" font-size="48.9348">2</text>
		
			<polyline fill="#FFFFFF" stroke="#0C5AE5" stroke-width="0.607" stroke-linecap="round" stroke-linejoin="round" stroke-miterlimit="10" points="
			706.665,152.786 715.858,152.786 724.284,181.054 730.029,136.731 770.699,136.731 		"/>
	</g>
</g>
</svg>
