<?xml version="1.0" encoding="utf-8"?>
<!-- Generator: Adobe Illustrator 16.0.0, SVG Export Plug-In . SVG Version: 6.00 Build 0)  -->
<!DOCTYPE svg PUBLIC "-//W3C//DTD SVG 1.1//EN" "http://www.w3.org/Graphics/SVG/1.1/DTD/svg11.dtd">
<svg version="1.1" id="Layer_1" xmlns="http://www.w3.org/2000/svg" xmlns:xlink="http://www.w3.org/1999/xlink" x="0px" y="0px"
	 width="652.139px" height="547.541px" viewBox="0 0 652.139 547.541" enable-background="new 0 0 652.139 547.541"
	 xml:space="preserve">
<g>
	
		<ellipse transform="matrix(0.9995 0.0327 -0.0327 0.9995 16.2471 -10.391)" fill="#7EA6EB" cx="326.069" cy="491.937" rx="326.239" ry="54.591"/>
	<g>
		<path fill="#FFA014" d="M123.376,173.032c-69.627,112.176-17.188,328.62,118.594,352.867
			c135.783,24.247,328.878,13.399,340.23-66.102c16.324-114.316-29.162-214.832-122.482-234.273
			c-23.33-31.107-71.935-133.176-132.426-193.647C296.378,0.973,167.02,102.716,123.376,173.032z"/>
		<path fill="#FFCC5F" d="M501.518,271.212c-35.968-4.86-53.93,165.337-137.064,153.59c-89.432-12.638-112.762-2.917-135.12-63.186
			c-22.358-60.27-46.835-94.024-69.018-115.679c-40.828-39.855,10.693-43.744,23.33-73.878c6.12-14.593-7.776-64.158,54.437-75.823
			c45.257-8.486,41.252-45.16,38.235-60.056c-51.284,24.305-122.694,88.118-152.941,136.851
			C95.13,218.538,86.975,281.203,96.32,341.235c7.82,24.13,25.494,56.124,45.525,76.763c32.079,33.051,98.181,76.795,177.892,80.683
			c108.07,5.272,198.889,1.794,226.496-56.381C573.452,384.947,537.485,276.073,501.518,271.212z"/>
		<path fill="#FFA014" d="M269.409,392.446c0,0-0.233,0.3-0.69,0.801c-0.453,0.512-1.136,1.205-2.019,2.046
			c-0.925,0.809-1.915,1.819-3.034,2.833c-0.557,0.537-1.16,0.99-1.781,1.578c-0.63,0.562-1.284,1.149-1.979,1.709
			c-0.695,0.567-1.4,1.152-2.107,1.783c-0.721,0.598-1.498,1.165-2.225,1.815c-0.739,0.635-1.52,1.241-2.316,1.842
			c-0.764,0.644-1.581,1.232-2.439,1.798c-0.825,0.598-1.687,1.175-2.608,1.712c-0.875,0.583-1.805,1.136-2.734,1.723
			c-1.804,1.216-3.63,2.548-5.176,4.157l-1.169,1.203l-1.095,1.27c-0.754,0.834-1.402,1.741-2.102,2.616
			c-1.3,1.808-2.572,3.644-3.61,5.552c-1.108,1.877-1.999,3.808-2.813,5.677c-0.819,1.869-1.434,3.714-1.98,5.44
			c-0.502,1.733-0.959,3.351-1.262,4.809c-0.306,1.456-0.539,2.745-0.698,3.813c-0.166,1.068-0.245,1.914-0.304,2.489
			c-0.047,0.566-0.072,0.869-0.072,0.869l-1.445,0.192c0,0-0.085-0.32-0.244-0.922c-0.149-0.595-0.335-1.469-0.524-2.591
			c-0.204-1.124-0.375-2.496-0.502-4.086c-0.125-1.589-0.205-3.396-0.164-5.38c0.076-1.976,0.197-4.14,0.528-6.419
			c0.313-2.283,0.803-4.687,1.503-7.144c0.683-2.462,1.621-4.959,2.75-7.437c0.601-1.219,1.171-2.48,1.89-3.663l1.045-1.807
			l1.146-1.752c0.735-1.199,1.609-2.287,2.384-3.473c0.81-1.153,1.692-2.24,2.535-3.373c0.903-1.062,1.813-2.121,2.761-3.12
			c0.991-0.939,2.007-1.837,3.05-2.659c1.083-0.755,2.175-1.464,3.28-2.091c1.12-0.594,2.259-1.087,3.364-1.56
			c1.092-0.504,2.243-0.775,3.301-1.142c1.089-0.306,2.118-0.626,3.159-0.779c1.021-0.202,2.013-0.345,2.948-0.478
			c0.939-0.116,1.885-0.164,2.746-0.188c1.734-0.071,3.226-0.021,4.408,0.179c1.206,0.18,2.164,0.353,2.83,0.51
			c0.663,0.146,1.026,0.257,1.026,0.257L269.409,392.446z"/>
		<path fill="#FFA014" d="M496.692,364.777c0,0,0.391-0.197,1.12-0.503c0.729-0.317,1.798-0.722,3.155-1.193
			c1.391-0.394,3.3-0.685,5.492-0.883c2.113-0.02,4.594-0.073,7.242,0.542c0.665,0.134,1.367,0.229,2.042,0.441
			c0.679,0.224,1.369,0.451,2.071,0.683c0.693,0.265,1.424,0.497,2.126,0.813c0.695,0.328,1.391,0.691,2.095,1.067
			c2.862,1.439,5.521,3.586,7.862,6.106c0.579,0.636,1.082,1.328,1.602,2.021c0.503,0.698,1.054,1.388,1.473,2.139
			c0.847,1.503,1.731,3.017,2.377,4.609c0.337,0.788,0.676,1.579,1.016,2.373c0.289,0.799,0.579,1.601,0.869,2.403
			c0.609,1.595,1.038,3.212,1.577,4.796c0.916,3.199,1.678,6.396,2.172,9.546c0.58,3.139,0.79,6.246,0.984,9.224
			c0.135,2.981,0.215,5.843,0.113,8.548c-0.072,2.704-0.244,5.244-0.444,7.578c-0.193,2.333-0.487,4.459-0.745,6.335
			c-0.271,1.876-0.541,3.502-0.807,4.836c-0.506,2.669-0.904,4.181-0.904,4.181l-1.448-0.169c0,0-0.047-1.516-0.231-4.169
			c-0.098-1.326-0.234-2.935-0.404-4.77c-0.181-1.836-0.438-3.899-0.736-6.134c-0.301-2.235-0.67-4.644-1.162-7.159
			c-0.225-1.261-0.52-2.54-0.775-3.85c-0.285-1.305-0.6-2.629-0.93-3.966c-0.709-2.66-1.494-5.379-2.41-8.05
			c-0.881-2.69-1.986-5.303-3.17-7.82l-0.968-1.833l-0.495-0.902l-0.564-0.85l-1.113-1.683c-0.409-0.517-0.817-1.032-1.225-1.546
			c-0.758-1.063-1.688-1.921-2.466-2.866c-0.376-0.487-0.847-0.856-1.231-1.303c-0.419-0.412-0.763-0.894-1.176-1.282
			c-1.597-1.605-3.029-3.225-4.574-4.62c-0.388-0.346-0.77-0.695-1.135-1.069c-0.379-0.349-0.799-0.627-1.191-0.944
			c-0.393-0.33-0.778-0.655-1.158-0.975c-0.392-0.307-0.813-0.555-1.205-0.848c-1.563-1.199-3.205-2.088-4.676-3.067
			c-0.748-0.415-1.447-0.804-2.094-1.163c-0.683-0.375-1.26-0.789-1.927-1.08c-1.306-0.598-2.329-1.1-3.026-1.484
			c-0.696-0.373-1.066-0.605-1.066-0.605L496.692,364.777z"/>
		<path fill="#D68105" d="M306.128,41.8c-26.246,11.665-9.721,72.907-44.716,109.846c-34.995,36.939-97.208,69.99-75.823,87.488
			s32.079,39.855,44.716,91.376s22.358,68.046,62.213,84.572c39.855,16.525,128.326,9.747,161.367-3.889
			c61.241-25.274,74.85-57.354,70.962-94.292c-3.889-36.939-7.776-48.605-42.772-61.242
			c-34.994-12.637-45.688-66.102-69.018-105.957s-37.911-71.935-59.297-95.265C332.374,31.107,306.128,41.8,306.128,41.8z"/>
		<path fill="#FFA014" d="M218.557,240.83c0,0-0.949,0.091-2.722,0.2c-1.793,0.138-4.307,0.281-7.551,0.609
			c-6.439,0.609-15.593,1.612-25.758,4.457c-2.536,0.712-5.12,1.574-7.734,2.536c-2.599,1.008-5.221,2.141-7.808,3.462
			c-5.188,2.622-10.192,6.029-14.833,10.112c-4.61,4.119-8.89,8.933-12.582,14.447c-3.716,5.493-6.769,11.719-8.945,18.319
			c-2.151,6.604-3.429,13.573-3.811,20.397c-0.091,1.704-0.121,3.396-0.082,5.058c0.067,1.788,0.134,3.566,0.201,5.334
			c0.204,3.505,0.444,6.844,0.802,10.269c1.363,13.571,4.309,26.102,7.613,36.631c0.423,1.314,0.837,2.602,1.242,3.859
			c0.438,1.249,0.867,2.469,1.285,3.657c0.807,2.393,1.714,4.61,2.492,6.729c0.857,2.083,1.629,4.053,2.403,5.848
			c0.792,1.786,1.477,3.451,2.148,4.932c1.34,2.961,2.419,5.282,3.196,6.845c0.761,1.572,1.167,2.41,1.167,2.41l-1.263,0.729
			c0,0-0.509-0.786-1.463-2.261c-0.972-1.466-2.337-3.652-4.052-6.459c-0.858-1.402-1.76-2.984-2.753-4.702
			c-0.984-1.724-1.986-3.623-3.092-5.638c-2.101-4.084-4.469-8.716-6.668-13.957c-2.221-5.228-4.485-10.98-6.452-17.229
			c-1.95-6.25-3.69-12.962-5.065-20.013c-0.719-3.485-1.243-7.218-1.73-10.875c-0.205-1.82-0.41-3.651-0.617-5.492
			c-0.168-1.972-0.252-3.938-0.266-5.904c-0.032-7.856,0.947-15.749,2.81-23.513c1.843-7.762,4.646-15.402,8.539-22.475
			c2-3.499,4.208-6.886,6.753-9.973c2.543-3.083,5.323-5.935,8.314-8.44c5.974-5.037,12.675-8.685,19.236-11.173
			c6.572-2.519,13.043-3.807,18.958-4.459c11.888-1.186,21.552,0.207,28.106,1.56c1.642,0.338,3.099,0.695,4.367,1.025
			c1.27,0.31,2.333,0.601,3.175,0.875c1.701,0.51,2.604,0.815,2.604,0.815L218.557,240.83z"/>
		<path fill="#272372" d="M328.972,496.25c-4.86,21.872-43.744,46.66-49.09,45.202c-5.347-1.458,9.874-14.189,13.123-38.884
			c2.43-18.47,8.263-22.844,24.788-22.844s17.012-2.431,17.012-2.431L328.972,496.25z"/>
		<path fill="#272372" d="M517.719,462.389c21.71,7.129,32.403,20.738,39.208,20.738s0,29.162-9.721,25.274
			c-9.721-3.889-22.845-7.777-35.968-25.274C498.115,465.629,517.719,462.389,517.719,462.389z"/>
		<path fill="#125FB5" d="M328.485,304.912c34.348-44.068,128.964-57.029,167.848-36.292
			c38.883,20.738,18.146,60.917-28.515,114.707c-46.66,53.788-139.333,116.65-139.333,116.65s-9.072-15.554-1.943-23.979
			s38.235-62.214,38.235-62.214l-55.085-84.247L328.485,304.912z"/>
		<g>
			<path fill="#C0DDFD" d="M381.626,392.076c-0.164,0-0.332-0.042-0.484-0.131c-0.465-0.268-0.625-0.862-0.356-1.327
				c1.488-2.581,3.45-7.24,5.936-13.14c6.578-15.617,17.587-41.756,34.465-62.57c20.422-25.185,44.435-36.505,71.362-33.646
				c0.533,0.057,0.92,0.536,0.863,1.07c-0.057,0.533-0.537,0.918-1.068,0.863c-26.238-2.786-49.667,8.295-69.647,32.937
				c-16.702,20.599-27.222,45.574-34.183,62.101c-2.512,5.962-4.494,10.671-6.044,13.355
				C382.289,391.901,381.962,392.076,381.626,392.076z"/>
		</g>
		<path fill="#272372" d="M294.949,67.803c5.589,21.629,7.614,58.892-26.084,46.579c-33.699-12.313-84.896,15.554-76.471,44.716
			c8.425,29.163,2.592,51.845-29.811,50.549c-32.403-1.296-3.889,50.548,32.403,42.124c36.291-8.425,55.733,33.051,68.046-36.291
			s86.191-86.84,86.191-86.84l-42.771-48.604L294.949,67.803z"/>
		<ellipse fill="#272372" cx="342.141" cy="56.886" rx="48.135" ry="56.887"/>
		<path fill="#FFFFFF" d="M332.374,113.086c24.789-2.998,56.997,13.637,60.918,18.146c12.961,14.905,24.626,57.677,20.09,99.801
			c-4.76,44.197-19.441,71.286-39.531,83.6s-51.035,15.877-86.03-34.023s-22.844-123.455-8.586-141.6
			C293.491,120.863,332.374,113.086,332.374,113.086z"/>
		<path fill="#1A6FCE" d="M233.87,337.962c-15.718-55.012,49.9-68.046,92.024-25.923c28.581,28.581,63.51,71.287,135.444,116.003
			c41.862,26.022,56.381,34.347,56.381,34.347s-2.592,18.794-6.48,20.738c-3.888,1.944-69.99-4.537-159.423-47.309
			C262.384,393.047,240.35,360.644,233.87,337.962z"/>
		<path fill="#FFFFFF" d="M377.091,122.159c77.118,33.699,98.504,123.779,90.08,139.98c-8.426,16.201-36.292,19.118-60.918-2.917
			c-24.626-22.034-31.755-48.604-31.755-48.604s-18.146-12.637-8.425-12.637S369.939,119.034,377.091,122.159z"/>
		<path fill="#FFFFFF" d="M281.178,136.417c-43.42,46.66-71.286,164.606-30.458,166.551s73.23-27.219,76.471-43.42
			c3.24-16.202-29.163-22.682-29.163-22.682L281.178,136.417z"/>
		<g>
			<path fill="#272372" d="M349.337,322.757c-4.766,0-9.922-0.75-15.41-2.585c-0.51-0.17-0.784-0.721-0.613-1.23
				c0.17-0.509,0.721-0.783,1.229-0.613c16.802,5.616,30.372,0.64,38.8-4.525c15.929-9.763,28.727-29.584,34.232-53.02
				c0.074-0.32,0.306-0.58,0.614-0.692c0.31-0.111,0.653-0.059,0.915,0.137c14.958,11.24,29.688,15.956,41.469,13.277
				c7.014-1.594,12.602-5.79,15.734-11.814c3.916-7.531,0.904-31.795-10.791-57.863c-8.416-18.757-28.271-53.413-66.704-74.771
				c-11.33-7.084-36.591-17.391-56.321-15.006c-0.262,0.039-28.807,4.399-50.682,23.104c-16.011,13.69-31.383,41.122-41.119,73.379
				c-9.367,31.035-11.682,60.545-6.042,77.017c3.159,9.226,8.582,14.086,16.117,14.445c19.851,0.932,35.973-5.584,45.997-11.227
				c0.468-0.265,1.061-0.099,1.324,0.369c0.263,0.469,0.098,1.061-0.37,1.324c-10.246,5.769-26.715,12.444-47.043,11.475
				c-8.292-0.395-14.469-5.844-17.864-15.758c-5.765-16.835-3.458-46.803,6.021-78.208c9.839-32.599,25.434-60.373,41.716-74.295
				c22.313-19.08,51.396-23.511,51.688-23.553c20.254-2.45,46.055,8.06,57.566,15.259c38.881,21.605,58.977,56.671,67.49,75.648
				c12.094,26.954,14.959,51.448,10.742,59.556c-3.4,6.54-9.447,11.09-17.029,12.813c-12.035,2.735-26.863-1.787-41.882-12.741
				c-5.802,23.306-18.728,42.974-34.763,52.802C368.331,319.156,359.774,322.757,349.337,322.757z"/>
		</g>
		<g>
			<path fill="#272372" d="M397.504,190.205c-0.121,0-0.244-0.022-0.363-0.071c-0.498-0.201-0.739-0.767-0.538-1.265
				c5.731-14.204,5.109-22.956-2.896-40.717c-0.221-0.489-0.002-1.065,0.487-1.286c0.489-0.219,1.065-0.002,1.286,0.487
				c8.271,18.354,8.901,27.435,2.926,42.243C398.253,189.975,397.889,190.205,397.504,190.205z"/>
		</g>
		<g>
			<path fill="#272372" d="M293.167,240.268c-0.121,0-0.244-0.022-0.363-0.07c-0.498-0.201-0.739-0.767-0.539-1.265
				c0.089-0.222,8.839-22.546,0.62-49.416c-0.157-0.513,0.132-1.057,0.646-1.214c0.513-0.158,1.056,0.131,1.214,0.646
				c8.428,27.552-0.584,50.481-0.676,50.71C293.916,240.038,293.552,240.268,293.167,240.268z"/>
		</g>
		<path fill="#1A6FCE" d="M388.755,241.563l-66.758,11.211c-4.013,0.53-7.754-2.129-8.572-6.094l-12.409-60.11
			c-0.421-2.041,1.018-3.998,3.092-4.204l97.285-13.468c3.888-0.729,4.624,4.498,4.491,6.862
			c-1.575,28.134-6.545,55.958-6.545,55.958C398.266,236.919,394.019,240.869,388.755,241.563z"/>
		<path fill="#C0DDFD" d="M391.672,234.921c-11.827-18.308-16.688-44.392-4.051-40.989c12.638,3.402,13.771,17.498,14.743,26.57
			c0.973,9.073,0.973,9.073,0.973,9.073L391.672,234.921z"/>
		<path fill="#C0DDFD" d="M305.642,235.245c1.296-10.369,9.721-38.397,15.877-29.811c6.156,8.586,8.263,20.414,2.43,31.917
			c-5.833,11.503-9.721,12.151-9.721,12.151L305.642,235.245z"/>
		<path fill="#FFFFFF" d="M409.817,261.653c-13.106-8.849-19.279-27.218-19.279-27.218s7.938-8.263,11.826-7.291
			c3.889,0.972,35.644-0.324,48.604,7.776c12.962,8.101,14.257,16.526,14.257,16.526L409.817,261.653z"/>
		<g>
			<path fill="#272372" d="M409.979,263.274c-0.187,0-0.376-0.054-0.543-0.167c-13.225-8.929-19.71-27.569-19.979-28.358
				c-0.13-0.378-0.014-0.797,0.291-1.056c1.018-0.862,10.06-8.391,14.312-7.33c0.866,0.216,3.534,0.311,6.913,0.429
				c10.676,0.376,30.55,1.077,40.512,7.304c13.188,8.242,14.648,16.84,14.703,17.202c0.082,0.531-0.282,1.027-0.813,1.109
				c-0.537,0.079-1.027-0.283-1.109-0.813c-0.012-0.076-1.452-8.125-13.811-15.85c-9.521-5.951-29.057-6.639-39.551-7.009
				c-3.765-0.133-6.252-0.221-7.316-0.487c-2.363-0.587-8.428,3.505-12.064,6.494c1.252,3.326,7.641,19.083,19.001,26.752
				c0.444,0.3,0.562,0.905,0.262,1.35C410.597,263.124,410.29,263.274,409.979,263.274z"/>
		</g>
		<g>
			<path fill="#272372" d="M297.38,292.598c-0.235,0-0.471-0.086-0.658-0.258c-0.395-0.363-0.42-0.978-0.058-1.373
				c0.038-0.041,3.876-4.289,9.233-15.634c5.328-11.282,7.355-25.125,7.048-26.968c-0.174-1.046-3.741-6.8-7.225-11.985
				c-6.117,1.857-51.819,16.43-61.558,39.743c-0.207,0.496-0.777,0.729-1.271,0.521c-0.496-0.207-0.729-0.776-0.522-1.271
				c10.75-25.734,61.343-40.45,63.491-41.063c0.404-0.117,0.836,0.042,1.072,0.39c1.264,1.869,7.589,11.296,7.931,13.345
				c0.382,2.29-1.631,16.307-7.208,28.118c-5.509,11.665-9.399,15.945-9.562,16.122C297.902,292.493,297.642,292.598,297.38,292.598
				z"/>
		</g>
		<path fill="#C0DDFD" d="M341.804,148.891c-9.623,0-17.497-7.874-17.497-17.498V86.191c0-9.624,7.874-17.498,17.497-17.498
			c9.624,0,17.498,7.874,17.498,17.498v45.202C359.302,141.017,351.428,148.891,341.804,148.891z"/>
		<path fill="#ABC6EF" d="M341.804,68.694c-9.623,0-17.497,7.874-17.497,17.498v6.896c17.715,22.763,27.952,29.635,34.995,25.909
			V86.191C359.302,76.568,351.428,68.694,341.804,68.694z"/>
		<ellipse fill="#C0DDFD" cx="342.141" cy="56.886" rx="32.714" ry="38.663"/>
		<circle fill="#6694EE" cx="358.864" cy="211.915" r="9.397"/>
		<path fill="#272372" d="M355.38,15.229c13.609,25.274-4.212,40.828-23.33,48.604c-19.117,7.777-13.608,23.006-13.608,23.006
			s-28.191-19.442-15.554-42.124c12.637-22.682,40.504-32.403,40.504-32.403L355.38,15.229z"/>
	</g>
</g>
</svg>
