<?xml version="1.0" encoding="utf-8"?>
<!-- Generator: Adobe Illustrator 16.0.0, SVG Export Plug-In . SVG Version: 6.00 Build 0)  -->
<!DOCTYPE svg PUBLIC "-//W3C//DTD SVG 1.1//EN" "http://www.w3.org/Graphics/SVG/1.1/DTD/svg11.dtd">
<svg version="1.1" id="Layer_1" xmlns="http://www.w3.org/2000/svg" xmlns:xlink="http://www.w3.org/1999/xlink" x="0px" y="0px"
	 width="687.334px" height="363.671px" viewBox="0 0 687.334 363.671" enable-background="new 0 0 687.334 363.671"
	 xml:space="preserve">
<g>
	<path fill="#D4E6FC" d="M19.458,363.172h628.895H19.458z"/>
	<path fill="#0C5AE5" d="M648.353,363.671H19.458c-0.276,0-0.5-0.224-0.5-0.5s0.224-0.5,0.5-0.5h628.895c0.276,0,0.5,0.224,0.5,0.5
		S648.629,363.671,648.353,363.671z"/>
</g>
<g>
	<path fill="none" d="M478.688,286.853c-3.004-1.109-6.241-1.782-9.704-1.978c-0.708-0.04-1.407-0.051-2.103-0.046
		c3.401,1.714,6.527,3.59,9.395,5.57C477.056,289.198,477.859,288.017,478.688,286.853z"/>
	<path fill="#0C5AE5" d="M366.135,142.553c0.029-0.159,0.134-0.295,0.28-0.363l23.157-10.834c0.127-0.06,0.272-0.062,0.4-0.01
		c0.129,0.053,0.23,0.237,0.279,0.368l5.214,13.957h14.083c5.014,0,9.454-4.24,9.454-9.254V32.925c0-5.014-4.44-9.254-9.454-9.254
		H306.058c-5.015,0-9.055,4.24-9.055,9.254v103.492c0,5.014,4.04,9.254,9.055,9.254h62.653l-2.443-2.6
		C366.155,142.956,366.106,142.711,366.135,142.553z M391.456,112.816c-0.098,0.098-0.226,0.146-0.354,0.146
		s-0.256-0.049-0.354-0.146l-9.433-9.433c-0.195-0.195-0.195-0.512,0-0.707s0.512-0.195,0.707,0l9.433,9.433
		C391.651,112.305,391.651,112.621,391.456,112.816z M404.948,80.171c0,0.276-0.224,0.5-0.5,0.5h-13.346c-0.276,0-0.5-0.224-0.5-0.5
		s0.224-0.5,0.5-0.5h13.346C404.725,79.671,404.948,79.895,404.948,80.171z M381.316,57.121l9.433-9.433
		c0.195-0.195,0.512-0.195,0.707,0s0.195,0.512,0,0.707l-9.433,9.433c-0.098,0.098-0.226,0.146-0.354,0.146
		s-0.256-0.049-0.354-0.146C381.121,57.633,381.121,57.316,381.316,57.121z M358.003,34.696c0-0.276,0.224-0.5,0.5-0.5
		s0.5,0.224,0.5,0.5v13.346c0,0.276-0.224,0.5-0.5,0.5s-0.5-0.224-0.5-0.5V34.696z M326.328,47.688c0.195-0.195,0.512-0.195,0.707,0
		l9.433,9.433c0.195,0.195,0.195,0.512,0,0.707c-0.098,0.098-0.226,0.146-0.354,0.146s-0.256-0.049-0.354-0.146l-9.433-9.433
		C326.133,48.2,326.133,47.884,326.328,47.688z M312.836,80.171c0-0.276,0.224-0.5,0.5-0.5h13.346c0.276,0,0.5,0.224,0.5,0.5
		s-0.224,0.5-0.5,0.5h-13.346C313.06,80.671,312.836,80.447,312.836,80.171z M336.468,103.384l-9.433,9.433
		c-0.098,0.098-0.226,0.146-0.354,0.146s-0.256-0.049-0.354-0.146c-0.195-0.195-0.195-0.512,0-0.707l9.433-9.433
		c0.195-0.195,0.512-0.195,0.707,0S336.663,103.188,336.468,103.384z M344.003,126.454v-11.891l-1.094-7.45
		c-0.616-4.053-2.043-7.874-4.281-11.356l-2.878-4.489c-1.968-3.523-2.995-7.376-2.995-11.444c0-13.395,11.247-24.152,25.066-24.152
		c0,0,0.045,0,0.046,0c6.668,0,12.949,2.406,17.688,7.012c4.742,4.607,7.348,10.636,7.338,17.105
		c-0.007,4.02-1.048,7.965-3.011,11.479l-3.092,5.098c-1.866,3.088-3.13,6.433-3.754,9.957l-1.264,7.953
		c0.047,0.076,0.23,0.156,0.23,0.252v11.928c0,0.276-0.521,0.217-0.798,0.217h-26.626
		C344.303,126.671,344.003,126.73,344.003,126.454z"/>
	<path fill="#0C5AE5" d="M306.058,146.671h63.623l-0.97-1h-62.653c-5.015,0-9.055-4.24-9.055-9.254V32.925
		c0-5.014,4.04-9.254,9.055-9.254h103.491c5.014,0,9.454,4.24,9.454,9.254v103.492c0,5.014-4.44,9.254-9.454,9.254h-14.083l0.375,1
		h13.708c5.565,0,10.454-4.688,10.454-10.254V32.925c0-5.565-4.889-10.254-10.454-10.254H306.058
		c-5.565,0-10.055,4.688-10.055,10.254v103.492C296.003,141.982,300.492,146.671,306.058,146.671z"/>
	<path fill="#D4E6FC" d="M600.567,276.084c8.103,6.362,13.844,13.444,17.778,19.517l5.116-10.127l-5.266-26.602
		c-0.054-0.271,0.122-0.533,0.394-0.587c0.263-0.053,0.534,0.123,0.587,0.394l5.017,25.347l31.484-62.317
		c0.124-0.247,0.425-0.344,0.672-0.221c0.246,0.125,0.345,0.425,0.221,0.672l-21.813,43.177l17.093-7.48
		c0.254-0.108,0.548,0.003,0.658,0.258c0.11,0.253-0.005,0.548-0.258,0.658l-18.201,7.966l-15.078,29.843
		c3.481,5.544,5.424,10.134,6.269,12.37c2.043,5.409,8.26,21.869,7.516,39.464c-0.061,1.427-0.175,2.825-0.32,4.209
		c0.437-0.509,0.866-1.035,1.278-1.601c2.769-3.801,5.637-10.598,3.572-21.4c-0.357-1.869-0.874-3.647-1.374-5.367
		c-1.523-5.239-2.963-10.188,1.07-15.601c2.092-2.808,5.466-5.036,8.729-7.191c1.835-1.212,3.567-2.356,5.04-3.574
		c4.55-3.76,10.212-8.438,11.985-14.717c1.422-5.038-0.136-9.155-1.784-13.514c-0.685-1.81-1.393-3.68-1.899-5.662
		c-3-11.727,3.566-16.78,10.519-22.132c3.235-2.49,6.581-5.065,9.266-8.447c9.661-12.168,3.311-22.637-2.83-32.762
		c-1.768-2.914-3.438-5.667-4.749-8.469l-0.166-0.084c-3.034,0.606-6.241,0.896-9.635,1.202
		c-11.794,1.063-23.989,2.163-28.052,17.159c-1.129,4.167-1.217,8.389-1.302,12.471c-0.183,8.771-0.355,17.056-11.574,21.599
		c-1.896,0.768-3.821,1.308-5.684,1.83c-1.535,0.431-3.039,0.855-4.484,1.391c-0.85,3.042-1.732,5.993-2.641,8.821
		C605.499,263.491,603.064,270.019,600.567,276.084z"/>
	<path fill="#D4E6FC" d="M676.22,200.525c-1.772-2.921-3.446-5.681-4.755-8.483l-0.019-0.039l-0.32-0.162l-0.042,0.009
		c-3.033,0.609-6.247,0.899-9.65,1.206c-11.879,1.071-24.162,2.179-28.271,17.344c-1.136,4.196-1.225,8.433-1.31,12.529
		c-0.189,9.063-0.353,16.892-11.418,21.372c-1.884,0.763-3.802,1.301-5.657,1.821c-1.48,0.416-2.934,0.825-4.334,1.333
		c-0.027,0.1-0.056,0.199-0.083,0.299c1.445-0.535,2.949-0.96,4.484-1.391c1.862-0.522,3.787-1.063,5.684-1.83
		c11.219-4.543,11.392-12.828,11.574-21.599c0.085-4.082,0.173-8.304,1.302-12.471c4.063-14.996,16.258-16.096,28.052-17.159
		c3.394-0.307,6.601-0.596,9.635-1.202l0.166,0.084c1.312,2.802,2.981,5.555,4.749,8.469c6.141,10.125,12.491,20.594,2.83,32.762
		c-2.685,3.382-6.03,5.957-9.266,8.447c-6.952,5.352-13.519,10.405-10.519,22.132c0.507,1.982,1.215,3.853,1.899,5.662
		c1.648,4.358,3.206,8.476,1.784,13.514c-1.773,6.278-7.436,10.957-11.985,14.717c-1.473,1.218-3.205,2.362-5.04,3.574
		c-3.263,2.155-6.637,4.384-8.729,7.191c-4.033,5.412-2.594,10.361-1.07,15.601c0.5,1.72,1.017,3.498,1.374,5.367
		c2.064,10.803-0.804,17.6-3.572,21.4c-0.412,0.565-0.842,1.092-1.278,1.601c-0.016,0.149-0.04,0.295-0.057,0.444
		c0.527-0.598,1.043-1.222,1.536-1.898c5.07-6.957,4.766-15.583,3.617-21.594c-0.359-1.881-0.879-3.665-1.38-5.391
		c-1.571-5.402-2.928-10.068,1.031-15.382c2.065-2.772,5.421-4.988,8.665-7.132c1.841-1.216,3.579-2.363,5.063-3.589
		c4.576-3.782,10.271-8.489,12.065-14.842c1.444-5.118-0.127-9.272-1.791-13.671c-0.682-1.803-1.387-3.666-1.891-5.636
		c-2.959-11.566,3.245-16.342,10.429-21.871c3.247-2.5,6.605-5.084,9.309-8.489C688.801,221.269,682.405,210.724,676.22,200.525z"/>
	<path fill="#0C5AE5" d="M633.883,266.81c-0.065,0.028-0.133,0.042-0.2,0.042c-0.192,0-0.376-0.111-0.458-0.3
		c-0.11-0.253,0.005-0.548,0.258-0.658l1.274-0.558l21.813-43.177c0.124-0.247,0.025-0.547-0.221-0.672
		c-0.247-0.123-0.548-0.026-0.672,0.221l-31.484,62.317l0.282,1.425c0.054,0.271-0.122,0.533-0.394,0.587
		c-0.032,0.007-0.065,0.01-0.098,0.01c-0.233,0-0.442-0.165-0.489-0.403l-0.033-0.17l-5.116,10.127
		c0.214,0.329,0.422,0.656,0.625,0.979l15.078-29.843L633.883,266.81z"/>
	<path fill="#0C5AE5" d="M623.984,286.047c0.032,0,0.065-0.003,0.098-0.01c0.271-0.054,0.447-0.316,0.394-0.587l-0.282-1.425
		l-5.017-25.347c-0.053-0.271-0.324-0.446-0.587-0.394c-0.271,0.054-0.447,0.316-0.394,0.587l5.266,26.602l0.033,0.17
		C623.542,285.882,623.751,286.047,623.984,286.047z"/>
	<path fill="#0C5AE5" d="M633.482,265.894c-0.253,0.11-0.368,0.405-0.258,0.658c0.082,0.188,0.266,0.3,0.458,0.3
		c0.067,0,0.135-0.014,0.2-0.042l0.166-0.072l18.201-7.966c0.253-0.11,0.368-0.405,0.258-0.658c-0.11-0.255-0.404-0.366-0.658-0.258
		l-17.093,7.48L633.482,265.894z"/>
	<path fill="#FFFFFF" d="M614.254,226.196c1.027-5.817,1.843-11.865,2.377-18.094l-36.691,33.213l-3.057,18.09l37.26-33.145
		C614.176,226.231,614.216,226.215,614.254,226.196z"/>
	<path fill="#FFFFFF" d="M600.5,119.621l-20.292,120.1l36.552-33.085C618.87,179.624,615.529,149.312,600.5,119.621z"/>
	<path fill="#FFFFFF" d="M566.994,169.979c-5.567,12.173-9.539,24.042-12.311,35.266c7.867,4.567,12.09,11.349,11.707,19.125
		c-0.346,7.045-2.507,12.077-6.423,14.958c-0.961,0.706-1.965,1.223-2.965,1.617v17.907c7,0.77,12.777,2.12,18.303,3.898
		l8.061-47.718L566.994,169.979z"/>
	<path fill="#FFFFFF" d="M567.59,168.69l16.113,44.344l15.765-93.313C585.392,136.024,575.083,152.608,567.59,168.69z"/>
	<path fill="#FFFFFF" d="M613.976,227.748l-37.359,33.233l-0.353,2.09c9.396,3.148,17.142,7.535,23.483,12.383
		c2.454-5.979,4.845-12.409,7.029-19.213C609.524,247.683,612.069,238.089,613.976,227.748z"/>
	<path fill="#0C5AE5" d="M567.451,168.309l0.139,0.382c7.493-16.082,17.802-32.666,31.878-48.969l0.3-1.771
		c0.02-0.114,0.082-0.207,0.162-0.279c-0.014,0.013-0.032,0.018-0.045,0.032c-14.679,16.731-25.356,33.784-33.086,50.313
		c0.005-0.002,0.007-0.006,0.012-0.007C567.071,167.915,567.357,168.05,567.451,168.309z"/>
	<path fill="#0C5AE5" d="M600.321,117.537c-0.019-0.003-0.035,0.007-0.053,0.006c0.021,0,0.041-0.005,0.062-0.003
		C600.327,117.54,600.324,117.538,600.321,117.537z"/>
	<path fill="#0C5AE5" d="M600.5,119.621c15.029,29.69,18.37,60.003,16.26,87.015l0.002-0.002c0.204-0.182,0.521-0.169,0.707,0.035
		c0.185,0.205,0.169,0.521-0.035,0.707l-0.803,0.727c-0.534,6.229-1.35,12.276-2.377,18.094c0.196-0.1,0.439-0.068,0.595,0.106
		c0.183,0.206,0.165,0.522-0.042,0.706l-0.831,0.739c-1.906,10.341-4.451,19.935-7.199,28.493
		c-2.185,6.804-4.575,13.233-7.029,19.213c0.275,0.209,0.552,0.419,0.82,0.63c2.497-6.065,4.932-12.593,7.152-19.509
		c0.908-2.828,1.791-5.779,2.641-8.821c0.027-0.1,0.056-0.199,0.083-0.299c9.692-34.89,14.412-83.085-9.738-129.652
		c-0.005-0.009-0.015-0.015-0.021-0.022c0.059,0.098,0.09,0.214,0.069,0.336L600.5,119.621z"/>
	<path fill="#0C5AE5" d="M600.538,117.619c0.013,0.009,0.021,0.022,0.034,0.033C600.56,117.642,600.552,117.628,600.538,117.619z"/>
	<path fill="#0C5AE5" d="M600.026,117.603c0.03-0.017,0.062-0.033,0.096-0.043C600.087,117.569,600.058,117.585,600.026,117.603z"/>
	<path fill="#0C5AE5" d="M554.684,205.244c2.771-11.224,6.743-23.093,12.311-35.266l-0.482-1.328
		c-0.001-0.004-0.001-0.007-0.002-0.011c-5.772,12.456-9.879,24.607-12.731,36.091C554.087,204.897,554.386,205.071,554.684,205.244
		z"/>
	<path fill="#0C5AE5" d="M566.994,169.979l16.371,45.054l0.338-1.998L567.59,168.69l-0.139-0.382
		c-0.094-0.259-0.38-0.394-0.641-0.299c-0.005,0.001-0.007,0.005-0.012,0.007c-0.247,0.098-0.374,0.37-0.289,0.623
		c0.001,0.004,0.001,0.007,0.002,0.011L566.994,169.979z"/>
	<path fill="#0C5AE5" d="M617.434,207.376c0.204-0.186,0.22-0.502,0.035-0.707c-0.186-0.204-0.503-0.217-0.707-0.035l-0.002,0.002
		l-36.552,33.085l-0.269,1.595l36.691-33.213L617.434,207.376z"/>
	<path fill="#0C5AE5" d="M614.807,227.009c0.207-0.184,0.225-0.5,0.042-0.706c-0.155-0.175-0.398-0.206-0.595-0.106
		c-0.038,0.019-0.078,0.035-0.111,0.064l-37.26,33.145l-0.267,1.576l37.359-33.233L614.807,227.009z"/>
	<path fill="#0C5AE5" d="M599.468,119.722l-15.765,93.313l-0.338,1.998l-8.062,47.718c0.323,0.104,0.64,0.215,0.96,0.321l0.353-2.09
		l0.267-1.576l3.057-18.09l0.269-1.595l20.292-120.1l0.254-1.505c0.021-0.122-0.011-0.238-0.069-0.336
		c-0.029-0.05-0.067-0.092-0.112-0.128c-0.013-0.011-0.021,0.041-0.034,0.032c-0.058-0.038-0.122-0.014-0.194-0.014
		c-0.005,0-0.009,0-0.014,0c-0.021,0-0.041-0.063-0.062-0.063c-0.051,0-0.1-0.031-0.146-0.016c-0.034,0.01-0.065,0.01-0.096,0.026
		c-0.036,0.02-0.066,0.032-0.097,0.06c-0.08,0.072-0.143,0.161-0.162,0.275L599.468,119.722z"/>
	<path fill="#D4E6FC" d="M122.719,73.703c3.004-2.019,4.711-5.927,5.074-11.618c-6.027-0.388-10.215,0.84-12.457,3.656
		c-2.793,3.511-1.579,8.397-1.413,9.006C114.504,74.924,119.019,76.189,122.719,73.703z"/>
	<path fill="#D4E6FC" d="M113.721,74.943l0.061,0.021c0.027,0.01,1.541,0.511,3.57,0.511c1.666,0,3.68-0.338,5.505-1.563
		c3.095-2.077,4.843-6.093,5.194-11.935l0.007-0.124l-0.123-0.009c-6.179-0.417-10.483,0.837-12.794,3.742
		c-3.049,3.831-1.455,9.242-1.438,9.296L113.721,74.943z M115.336,65.741c2.242-2.816,6.43-4.044,12.457-3.656
		c-0.363,5.691-2.07,9.6-5.074,11.618c-3.7,2.486-8.215,1.221-8.796,1.044C113.757,74.139,112.543,69.252,115.336,65.741z"/>
	<path fill="#D4E6FC" d="M102.699,74.994c0.925,2.816,4.033,3.946,4.513,4.105c0.371-0.312,2.671-2.361,2.64-5.307
		c-0.024-2.423-1.581-4.816-4.628-7.117C102.796,69.906,101.946,72.705,102.699,74.994z"/>
	<path fill="#D4E6FC" d="M107.203,79.359l0.062,0.018l0.051-0.039c0.027-0.021,2.819-2.233,2.786-5.545
		c-0.024-2.531-1.649-5.019-4.827-7.393l-0.1-0.074l-0.075,0.1c-2.537,3.342-3.425,6.251-2.639,8.646
		C103.5,78.234,107.166,79.349,107.203,79.359z M109.852,73.793c0.031,2.945-2.269,4.995-2.64,5.307
		c-0.479-0.159-3.588-1.289-4.513-4.105c-0.753-2.289,0.097-5.088,2.524-8.318C108.271,68.977,109.827,71.37,109.852,73.793z"/>
	<path fill="#D4E6FC" d="M93.853,82.433c1.212,2.703,4.424,3.505,4.917,3.613c0.337-0.35,2.409-2.628,2.071-5.554
		c-0.277-2.406-2.076-4.624-5.345-6.595C93.419,77.364,92.866,80.235,93.853,82.433z"/>
	<path fill="#D4E6FC" d="M98.788,86.305l0.063,0.012l0.047-0.045c0.025-0.024,2.571-2.516,2.192-5.806
		c-0.29-2.515-2.164-4.818-5.573-6.847l-0.106-0.063l-0.063,0.106c-2.176,3.589-2.755,6.575-1.722,8.875
		C94.988,85.573,98.75,86.298,98.788,86.305z M100.841,80.492c0.338,2.926-1.734,5.204-2.071,5.554
		c-0.493-0.108-3.705-0.91-4.917-3.613c-0.986-2.197-0.434-5.068,1.644-8.535C98.765,75.868,100.563,78.086,100.841,80.492z"/>
	<path fill="#D4E6FC" d="M87.449,92.067c2.029,2.155,5.325,1.864,5.829,1.804c0.204-0.44,1.416-3.272,0.14-5.926
		c-1.051-2.183-3.476-3.689-7.209-4.481C85.381,87.419,85.798,90.313,87.449,92.067z"/>
	<path fill="#D4E6FC" d="M92.399,94.167c0.588,0,0.969-0.056,0.98-0.057l0.063-0.01l0.029-0.058
		c0.017-0.031,1.606-3.219,0.171-6.204c-1.096-2.281-3.622-3.844-7.506-4.645l-0.122-0.025L85.99,83.29
		c-0.881,4.104-0.45,7.114,1.278,8.95C88.835,93.903,91.113,94.167,92.399,94.167z M93.418,87.945
		c1.276,2.653,0.064,5.485-0.14,5.926c-0.504,0.061-3.8,0.352-5.829-1.804c-1.651-1.755-2.068-4.648-1.24-8.604
		C89.942,84.256,92.367,85.763,93.418,87.945z"/>
	<path fill="#D4E6FC" d="M109.609,80.596c0.155,0.459,1.228,3.347,3.981,4.391c2.266,0.854,5.062,0.279,8.313-1.721
		c-2.126-3.437-4.423-5.247-6.829-5.38c-0.094-0.005-0.187-0.007-0.279-0.007C111.979,77.879,109.922,80.22,109.609,80.596z"/>
	<path fill="#D4E6FC" d="M122.142,83.413l0.104-0.065l-0.064-0.106c-2.189-3.58-4.576-5.466-7.094-5.604
		c-3.335-0.192-5.694,2.826-5.717,2.856l-0.039,0.051l0.018,0.061c0.011,0.035,1.054,3.439,4.15,4.614
		c0.707,0.269,1.462,0.402,2.264,0.402C117.645,85.621,119.78,84.883,122.142,83.413z M115.074,77.886
		c2.406,0.133,4.703,1.943,6.829,5.38c-3.251,2-6.047,2.575-8.313,1.721c-2.754-1.044-3.826-3.932-3.981-4.391
		c0.313-0.376,2.369-2.717,5.186-2.717C114.888,77.879,114.98,77.881,115.074,77.886z"/>
	<path fill="#D4E6FC" d="M101.976,89.181c0.155,0.459,1.228,3.347,3.981,4.391c2.267,0.859,5.061,0.28,8.313-1.721
		c-2.126-3.437-4.423-5.247-6.829-5.38c-0.094-0.005-0.187-0.007-0.279-0.007C104.345,86.464,102.288,88.805,101.976,89.181z"/>
	<path fill="#D4E6FC" d="M114.508,91.998l0.104-0.065l-0.064-0.106c-2.189-3.58-4.576-5.466-7.094-5.604
		c-3.332-0.18-5.693,2.825-5.717,2.856l-0.039,0.051l0.018,0.061c0.011,0.035,1.054,3.439,4.15,4.614
		c0.707,0.269,1.462,0.402,2.263,0.402C110.011,94.206,112.146,93.468,114.508,91.998z M107.44,86.471
		c2.406,0.133,4.703,1.943,6.829,5.38c-3.252,2.001-6.046,2.58-8.313,1.721c-2.754-1.044-3.826-3.932-3.981-4.391
		c0.313-0.376,2.369-2.717,5.186-2.717C107.254,86.464,107.347,86.466,107.44,86.471z"/>
	<path fill="#D4E6FC" d="M75.828,110.055c1.557,2.522,4.844,2.896,5.347,2.938c0.288-0.39,2.046-2.92,1.328-5.775
		c-0.59-2.35-2.663-4.313-6.162-5.84C74.735,105.086,74.563,108.005,75.828,110.055z"/>
	<path fill="#D4E6FC" d="M81.227,113.247l0.064,0.003l0.04-0.05c0.022-0.028,2.221-2.83,1.415-6.042
		c-0.615-2.456-2.775-4.494-6.42-6.061l-0.114-0.049l-0.05,0.114c-1.688,3.842-1.871,6.878-0.547,9.023
		C77.364,113.019,81.188,113.245,81.227,113.247z M82.503,107.217c0.718,2.855-1.04,5.386-1.328,5.775
		c-0.503-0.042-3.79-0.415-5.347-2.938c-1.266-2.05-1.093-4.969,0.513-8.678C79.84,102.903,81.913,104.867,82.503,107.217z"/>
	<path fill="#D4E6FC" d="M91.225,111.709c-2.973-0.167-5.143,2.32-5.466,2.71c0.155,0.459,1.228,3.347,3.981,4.39
		c2.266,0.858,5.062,0.279,8.313-1.72C95.928,113.652,93.631,111.842,91.225,111.709z"/>
	<path fill="#D4E6FC" d="M98.396,117.171l-0.064-0.106c-2.189-3.58-4.576-5.466-7.094-5.604c-0.098-0.006-0.195-0.008-0.292-0.008
		c-3.169,0-5.403,2.834-5.426,2.864l-0.039,0.051l0.018,0.061c0.011,0.035,1.054,3.439,4.15,4.614
		c0.707,0.269,1.463,0.402,2.264,0.402c1.882,0,4.017-0.738,6.379-2.208L98.396,117.171z M89.74,118.809
		c-2.754-1.043-3.826-3.931-3.981-4.39c0.323-0.39,2.493-2.877,5.466-2.71c2.406,0.133,4.703,1.943,6.829,5.38
		C94.802,119.088,92.006,119.667,89.74,118.809z"/>
	<path fill="#D4E6FC" d="M70.926,119.125c1.555,2.521,4.844,2.896,5.347,2.938c0.289-0.39,2.046-2.92,1.328-5.776
		c-0.59-2.349-2.662-4.313-6.161-5.839C69.834,114.156,69.661,117.075,70.926,119.125z"/>
	<path fill="#D4E6FC" d="M76.324,122.318l0.064,0.003l0.04-0.05c0.022-0.028,2.221-2.83,1.415-6.043
		c-0.615-2.455-2.775-4.494-6.419-6.06l-0.114-0.049l-0.05,0.114c-1.688,3.842-1.871,6.878-0.547,9.023
		C72.462,122.09,76.286,122.316,76.324,122.318z M77.601,116.287c0.718,2.856-1.039,5.387-1.328,5.776
		c-0.503-0.043-3.792-0.417-5.347-2.938c-1.265-2.05-1.092-4.969,0.514-8.677C74.938,111.975,77.011,113.938,77.601,116.287z"/>
	<path fill="#D4E6FC" d="M86.323,120.78c-0.094-0.005-0.188-0.007-0.279-0.007c-2.817,0-4.874,2.34-5.187,2.717
		c0.155,0.459,1.228,3.347,3.981,4.39c2.267,0.859,5.062,0.28,8.313-1.72C91.026,122.724,88.729,120.913,86.323,120.78z"/>
	<path fill="#D4E6FC" d="M93.495,126.242l-0.064-0.106c-2.189-3.58-4.576-5.466-7.094-5.604c-0.098-0.006-0.195-0.008-0.292-0.008
		c-3.169,0-5.403,2.834-5.426,2.864l-0.039,0.051l0.018,0.061c0.011,0.035,1.054,3.439,4.15,4.614
		c0.707,0.269,1.463,0.402,2.264,0.402c1.882,0,4.017-0.738,6.379-2.208L93.495,126.242z M84.839,127.88
		c-2.754-1.043-3.826-3.931-3.981-4.39c0.313-0.377,2.369-2.717,5.187-2.717c0.092,0,0.186,0.002,0.279,0.007
		c2.406,0.133,4.703,1.943,6.829,5.38C89.9,128.16,87.105,128.739,84.839,127.88z"/>
	<path fill="#D4E6FC" d="M107.591,101.827c-1.095-3.89-2.803-6.264-5.079-7.055c-2.801-0.973-5.584,0.812-6.001,1.096
		c0.022,0.484,0.257,3.556,2.615,5.318C101.067,102.638,103.915,102.851,107.591,101.827z"/>
	<path fill="#D4E6FC" d="M107.779,102.034l0.119-0.034l-0.033-0.119c-1.116-4.045-2.89-6.517-5.271-7.345
		c-3.146-1.093-6.38,1.145-6.411,1.168l-0.18,0.038v0.063c0,0.036,0.191,3.597,2.844,5.58c1.183,0.885,2.746,1.327,4.549,1.327
		C104.683,102.713,106.189,102.486,107.779,102.034z M96.511,95.868c0.417-0.284,3.2-2.068,6.001-1.096
		c2.276,0.791,3.984,3.165,5.079,7.055c-3.676,1.023-6.523,0.811-8.465-0.641C96.768,99.424,96.533,96.353,96.511,95.868z"/>
	<path fill="#D4E6FC" d="M82.004,100.728c2.031,2.156,5.325,1.862,5.828,1.803c0.204-0.439,1.416-3.271,0.14-5.926
		c-1.051-2.183-3.476-3.689-7.21-4.481C79.934,96.079,80.352,98.974,82.004,100.728z"/>
	<path fill="#D4E6FC" d="M86.953,102.826c0.588,0,0.969-0.056,0.98-0.057l0.063-0.01l0.029-0.058
		c0.017-0.031,1.606-3.219,0.171-6.203c-1.097-2.282-3.622-3.845-7.507-4.646l-0.122-0.025l-0.025,0.121
		c-0.88,4.104-0.45,7.114,1.279,8.949C83.389,102.563,85.667,102.826,86.953,102.826z M87.972,96.604
		c1.276,2.654,0.064,5.486-0.14,5.926c-0.503,0.06-3.797,0.354-5.828-1.803c-1.652-1.754-2.07-4.648-1.242-8.604
		C84.496,92.915,86.921,94.422,87.972,96.604z"/>
	<path fill="#D4E6FC" d="M97.065,103.431c-2.801-0.977-5.585,0.811-6.001,1.096c0.022,0.484,0.257,3.557,2.615,5.319
		c1.939,1.448,4.786,1.663,8.464,0.64C101.05,106.596,99.341,104.222,97.065,103.431z"/>
	<path fill="#D4E6FC" d="M102.451,110.658l-0.033-0.119c-1.116-4.045-2.89-6.517-5.271-7.345c-3.144-1.092-6.157,1.145-6.188,1.168
		l0.044,0.038v0.063c0,0.036-0.031,3.597,2.621,5.58c1.182,0.885,2.635,1.327,4.437,1.327c1.288,0,2.705-0.227,4.295-0.679
		L102.451,110.658z M93.68,109.846c-2.358-1.763-2.593-4.835-2.615-5.319c0.416-0.285,3.2-2.072,6.001-1.096
		c2.275,0.791,3.984,3.165,5.078,7.055C98.466,111.509,95.619,111.294,93.68,109.846z"/>
	<path fill="#D4E6FC" d="M63.37,139.751c1.97,2.214,5.276,2.01,5.776,1.968c0.217-0.435,1.508-3.231,0.307-5.92
		c-0.988-2.212-3.37-3.786-7.081-4.683C61.434,135.046,61.77,137.951,63.37,139.751z"/>
	<path fill="#D4E6FC" d="M68.521,141.993c0.438,0,0.71-0.032,0.721-0.033l0.063-0.008l0.03-0.057
		c0.018-0.031,1.696-3.172,0.347-6.196c-1.032-2.312-3.513-3.945-7.374-4.855l-0.12-0.028l-0.029,0.121
		c-0.996,4.076-0.65,7.099,1.025,8.981C64.813,141.748,67.304,141.993,68.521,141.993z M69.453,135.799
		c1.201,2.688-0.09,5.485-0.307,5.92c-0.5,0.042-3.807,0.246-5.776-1.968c-1.601-1.8-1.937-4.705-0.998-8.635
		C66.083,132.013,68.465,133.587,69.453,135.799z"/>
	<path fill="#D4E6FC" d="M78.824,138.712c-2.941,0.351-4.665,3.177-4.915,3.615c0.232,0.426,1.789,3.084,4.682,3.635
		c2.384,0.447,5.033-0.603,7.89-3.136C83.792,139.812,81.212,138.429,78.824,138.712z"/>
	<path fill="#D4E6FC" d="M86.832,142.848l-0.082-0.094c-2.776-3.146-5.444-4.581-7.958-4.29c-3.305,0.396-5.118,3.77-5.136,3.804
		l-0.03,0.057l0.028,0.058c0.017,0.032,1.634,3.205,4.888,3.825c0.374,0.071,0.755,0.106,1.142,0.106
		c2.18,0,4.548-1.134,7.056-3.384L86.832,142.848z M78.591,145.962c-2.893-0.551-4.449-3.209-4.682-3.635
		c0.25-0.438,1.974-3.265,4.915-3.615c2.388-0.283,4.968,1.1,7.656,4.114C83.624,145.359,80.975,146.409,78.591,145.962z"/>
	<path fill="#D4E6FC" d="M60.115,149.534c1.969,2.214,5.274,2.012,5.775,1.968c0.217-0.435,1.509-3.23,0.308-5.919
		c-0.988-2.212-3.37-3.786-7.081-4.683C58.179,144.83,58.515,147.734,60.115,149.534z"/>
	<path fill="#D4E6FC" d="M65.266,151.776c0.438,0,0.71-0.032,0.721-0.033l0.063-0.008l0.03-0.057
		c0.018-0.031,1.697-3.172,0.347-6.195c-1.031-2.312-3.512-3.945-7.373-4.855l-0.12-0.028l-0.029,0.121
		c-0.996,4.076-0.65,7.098,1.025,8.981C61.558,151.531,64.048,151.776,65.266,151.776z M66.198,145.583
		c1.201,2.688-0.091,5.484-0.308,5.919c-0.501,0.044-3.807,0.246-5.775-1.968c-1.601-1.8-1.937-4.704-0.998-8.634
		C62.828,141.797,65.21,143.371,66.198,145.583z"/>
	<path fill="#D4E6FC" d="M75.569,148.496c-2.941,0.351-4.665,3.177-4.915,3.615c0.232,0.426,1.789,3.084,4.682,3.635
		c2.382,0.448,5.033-0.603,7.89-3.136C80.536,149.596,77.954,148.211,75.569,148.496z"/>
	<path fill="#D4E6FC" d="M75.537,148.248c-3.305,0.396-5.118,3.77-5.136,3.804l-0.03,0.057l0.028,0.058
		c0.017,0.032,1.634,3.205,4.888,3.825c0.374,0.071,0.755,0.106,1.142,0.106c2.18,0,4.548-1.134,7.056-3.384l0.093-0.082
		l-0.082-0.094C80.719,149.392,78.052,147.961,75.537,148.248z M75.336,155.746c-2.893-0.551-4.449-3.209-4.682-3.635
		c0.25-0.438,1.974-3.265,4.915-3.615c2.385-0.285,4.967,1.1,7.656,4.114C80.369,155.144,77.718,156.194,75.336,155.746z"/>
	<path fill="#D4E6FC" d="M67.835,129.494c2.374,1.771,5.571,0.912,6.053,0.767c0.125-0.469,0.829-3.469-0.889-5.861
		c-1.412-1.967-4.062-3.031-7.877-3.163C64.993,125.274,65.905,128.053,67.835,129.494z"/>
	<path fill="#D4E6FC" d="M67.687,129.695c1.209,0.902,2.617,1.149,3.8,1.149c1.427,0,2.524-0.36,2.544-0.367l0.061-0.021
		l0.019-0.062c0.011-0.034,1.024-3.448-0.905-6.14c-1.476-2.057-4.234-3.158-8.198-3.273l-0.124-0.004l-0.005,0.124
		C64.721,125.297,65.666,128.188,67.687,129.695z M72.999,124.399c1.718,2.393,1.014,5.393,0.889,5.861
		c-0.481,0.146-3.679,1.005-6.053-0.767c-1.93-1.441-2.842-4.22-2.713-8.258C68.938,121.368,71.587,122.433,72.999,124.399z"/>
	<path fill="#D4E6FC" d="M83.141,129.547c-2.925-0.475-5.36,1.768-5.722,2.12c0.105,0.473,0.868,3.457,3.497,4.784
		c2.162,1.093,5.003,0.812,8.447-0.836C87.612,131.975,85.519,129.933,83.141,129.547z"/>
	<path fill="#D4E6FC" d="M89.696,135.732l-0.053-0.112c-1.801-3.791-3.976-5.917-6.464-6.32c-3.295-0.531-5.962,2.211-5.987,2.239
		l-0.045,0.047l0.012,0.063c0.007,0.035,0.687,3.531,3.643,5.025c0.896,0.453,1.902,0.679,3.013,0.679
		c1.688,0,3.618-0.522,5.771-1.566L89.696,135.732z M80.916,136.451c-2.629-1.327-3.392-4.312-3.497-4.784
		c0.361-0.353,2.797-2.595,5.722-2.12c2.378,0.386,4.472,2.428,6.223,6.068C85.919,137.263,83.078,137.544,80.916,136.451z"/>
	<path fill="#0C5AE5" d="M81.194,119.685c14.089-29.689,32.319-43.784,32.502-43.924c0.22-0.167,0.263-0.48,0.095-0.7
		c-0.167-0.219-0.48-0.261-0.7-0.096c-0.184,0.141-18.577,14.349-32.774,44.236c-8.736,18.391-17.027,45.421-16.654,81.294
		c0.34,0.457,0.685,0.911,1.019,1.369C64.08,165.517,72.409,138.196,81.194,119.685z"/>
	<path fill="#D4E6FC" d="M545.7,270.688c-6.184,0-11.218-4.995-11.293-11.161c-7.824,0.625-15.071,1.973-21.639,3.988
		c1.842,3.572,4.252,6.376,8.225,7.406c1.778,0.462,3.301,0.475,4.645,0.486c3.202,0.028,5.516,0.049,6.946,6.273
		c1.57,6.839-1.921,14.903-6.183,19.335c-3.427,3.563-6.896,4.561-10.594,4.561c-2.228,0.001-4.538-0.361-6.974-0.742
		c-1.254-0.196-2.55-0.399-3.884-0.561c-7.577-0.912-10.604-3.208-15.617-7.013c-1.088-0.826-2.271-1.723-3.615-2.693
		c-1.883-1.357-3.912-2.467-6.064-3.348c-0.882,1.229-1.731,2.481-2.556,3.752c18.292,12.981,25.821,30.168,27.733,35.23
		c2.634,6.974,7.413,22.469,3.394,36.469h81.93c6.213-11,9.532-23.83,3.836-35.982c-0.117-0.25-0.009-0.588,0.241-0.705
		c0.248-0.116,0.548,0.051,0.665,0.301c5.777,12.324,2.552,25.387-3.621,36.387h38.159c5.037-18,0.923-37.262-5.131-53.287
		c-2.918-7.725-19.079-43.896-67.327-49.488C556.729,265.908,551.772,270.688,545.7,270.688z"/>
	<path fill="#0C5AE5" d="M477.098,290.972c0.824-1.271,1.674-2.522,2.556-3.752c-0.318-0.129-0.642-0.248-0.965-0.367
		c-0.829,1.164-1.633,2.346-2.412,3.547C476.552,290.589,476.826,290.78,477.098,290.972z"/>
	<path fill="#0C5AE5" d="M632.435,352.623c0.146-1.384,0.26-2.782,0.32-4.209c0.744-17.595-5.473-34.055-7.516-39.464
		c-0.845-2.236-2.787-6.826-6.269-12.37c-0.203-0.323-0.411-0.65-0.625-0.979c-3.935-6.072-9.676-13.154-17.778-19.517
		c-0.269-0.211-0.545-0.421-0.82-0.63c-6.342-4.848-14.088-9.234-23.483-12.383c-0.32-0.106-0.636-0.217-0.958-0.321
		c-5.525-1.778-11.303-3.129-18.303-3.898v0.536c0,0.158-0.02,0.312-0.025,0.468c48.248,5.593,64.409,41.804,67.327,49.528
		c6.054,16.025,10.167,35.287,5.13,53.287h1.127c0.849-3,1.447-6.254,1.816-9.523C632.395,352.998,632.419,352.772,632.435,352.623z
		"/>
	<path fill="#0C5AE5" d="M512.769,263.515c6.567-2.016,13.615-3.363,21.439-3.988c0-0.047-0.205-0.092-0.205-0.139v-0.863
		c-8,0.634-15.186,2.013-21.881,4.08C512.269,262.913,512.615,263.217,512.769,263.515z"/>
	<path fill="#0C5AE5" d="M565.393,224.32c0.605-12.315-10.621-18.314-15.476-20.322c-9.738-4.027-20.873-3.75-24.823,0.617
		c-2.896,3.204-0.218,9.251,3.781,15.109c2.838-3.188,6.721-5.137,10.992-5.479c5.794-0.466,11.364,2.143,14.714,6.823
		c0.894-0.584,1.923-0.936,3.007-1.022c3.563-0.303,6.711,2.387,6.998,5.959c0.287,3.573-2.387,6.713-5.959,6.999
		c-0.374,0.03-0.743,0.028-1.103-0.005c-0.111,0.801-0.521,1.581-0.521,2.35v4.51c1-0.346,1.611-0.778,2.379-1.343
		C563.04,235.821,565.062,231.045,565.393,224.32z"/>
	<path fill="#0C5AE5" d="M528.622,219.994c0.08-0.095,0.171-0.177,0.253-0.27c-3.999-5.858-6.678-11.905-3.781-15.109
		c3.95-4.367,15.085-4.645,24.823-0.617c4.854,2.008,16.081,8.007,15.476,20.322c-0.331,6.725-2.353,11.501-6.011,14.195
		c-0.768,0.564-1.379,0.997-2.379,1.343v1.086c1-0.395,2.004-0.911,2.965-1.617c3.916-2.881,6.078-7.913,6.424-14.958
		c0.383-7.776-3.841-14.558-11.708-19.125c-0.298-0.173-0.597-0.347-0.905-0.514c-1.098-0.593-2.253-1.149-3.479-1.656
		c-10.269-4.247-21.666-3.866-25.947,0.871c-3.27,3.616-0.615,10.048,3.863,16.577C528.353,220.348,528.477,220.165,528.622,219.994
		z"/>
	<path fill="#FFFFFF" d="M542.506,247.139c-0.446,0.036-1.089,0.054-1.53,0.054c-2.021,0-3.973-0.381-5.973-1.061v13.256
		c0,5.68,4.82,10.3,10.5,10.3s10.5-4.62,10.5-10.3v-21.464c0,0.3-0.289,0.601-0.455,0.894
		C552.847,243.589,547.97,246.7,542.506,247.139z"/>
	<path fill="#0C5AE5" d="M534.003,259.388c0,0.047,0.205,0.092,0.205,0.139c0.076,6.166,5.209,11.161,11.393,11.161
		c6.072,0,11.08-4.819,11.328-10.832c0.006-0.156,0.074-0.31,0.074-0.468v-0.536v-17.907v-1.086v-4.51c0,0.883-1,1.742-1,2.575
		v21.464c0,5.68-4.82,10.3-10.5,10.3s-10.5-4.62-10.5-10.3v-13.256c0-0.129,0-0.272-1-0.422v12.814V259.388z"/>
	<path fill="#FFFFFF" d="M542.426,246.143c5.133-0.413,9.713-3.335,12.251-7.817c1.045-1.845,1.689-3.845,1.915-5.945
		c0.015-0.139,0.087-0.265,0.198-0.348c0.111-0.082,0.253-0.116,0.391-0.09c0.434,0.081,0.893,0.102,1.366,0.065
		c1.464-0.117,2.795-0.799,3.747-1.918c0.953-1.119,1.413-2.541,1.296-4.005c-0.242-3.023-2.906-5.278-5.922-5.043
		c-1.067,0.087-2.07,0.475-2.901,1.122c-0.109,0.085-0.248,0.126-0.387,0.099c-0.138-0.021-0.259-0.1-0.337-0.215
		c-2.878-4.302-7.721-6.856-12.855-6.856c-0.411,0-0.825,0.017-1.24,0.05c-4.129,0.332-7.881,2.25-10.564,5.4
		c-2.683,3.151-3.979,7.161-3.647,11.29C526.419,240.451,533.91,246.814,542.426,246.143z M558.164,225.717
		c0.275,0.016,0.486,0.251,0.471,0.527c-0.015,0.275-0.228,0.51-0.527,0.471c-0.733-0.038-1.314,0.134-1.718,0.521
		c-0.706,0.68-0.706,1.871-0.706,1.882c0.005,0.276-0.216,0.553-0.491,0.553c-0.003,0-0.006,0-0.009,0
		c-0.272,0-0.495-0.263-0.5-0.535c-0.001-0.064-0.015-1.609,1.014-2.598C556.308,225.95,557.144,225.667,558.164,225.717z"/>
	<path fill="#0C5AE5" d="M535.4,246.132c1.808,0.68,3.752,1.061,5.773,1.061c0.441,0,0.886-0.018,1.332-0.054
		c5.464-0.438,10.339-3.55,13.041-8.321c0.166-0.293,0.307-0.594,0.453-0.894c0.408-0.833,0.741-1.692,1-2.575
		c0.226-0.769,0.412-1.549,0.523-2.35c0.359,0.033,0.729,0.035,1.104,0.005c3.572-0.286,6.246-3.426,5.959-6.999
		c-0.287-3.572-3.436-6.262-6.998-5.959c-1.084,0.087-2.113,0.438-3.007,1.022c-3.35-4.681-8.92-7.289-14.714-6.823
		c-4.271,0.343-8.154,2.291-10.992,5.479c-0.082,0.093-0.173,0.175-0.253,0.27c-0.146,0.171-0.27,0.354-0.407,0.528
		c-2.568,3.271-3.811,7.317-3.476,11.489c0.496,6.188,4.373,11.298,9.661,13.698C534.729,245.859,535.061,246.003,535.4,246.132z
		 M529.383,220.642c2.684-3.15,6.436-5.068,10.564-5.4c0.415-0.033,0.829-0.05,1.24-0.05c5.135,0,9.978,2.555,12.855,6.856
		c0.078,0.115,0.199,0.193,0.337,0.215c0.139,0.027,0.277-0.014,0.387-0.099c0.831-0.647,1.834-1.035,2.901-1.122
		c3.016-0.235,5.68,2.02,5.922,5.043c0.117,1.464-0.343,2.886-1.296,4.005c-0.952,1.119-2.283,1.801-3.747,1.918
		c-0.474,0.036-0.933,0.016-1.366-0.065c-0.138-0.026-0.279,0.008-0.391,0.09c-0.111,0.083-0.184,0.209-0.198,0.348
		c-0.226,2.101-0.87,4.101-1.915,5.945c-2.538,4.482-7.118,7.404-12.251,7.817c-8.516,0.672-16.007-5.691-16.69-14.211
		C525.404,227.803,526.7,223.793,529.383,220.642z"/>
	<path fill="#0C5AE5" d="M555.697,226.516c-1.028,0.989-1.015,2.556-1.014,2.62c0.005,0.272,0.228,0.535,0.5,0.535
		c0.003,0,0.006,0,0.009,0c0.275,0,0.496-0.276,0.491-0.553c0-0.011,0-1.18,0.706-1.859c0.403-0.389,0.984-0.571,1.718-0.533
		c0.3,0.039,0.513-0.201,0.527-0.477c0.016-0.275-0.195-0.514-0.471-0.529C557.144,225.67,556.308,225.928,555.697,226.516z"/>
	<path fill="#0C5AE5" d="M594.896,326.265c-0.117-0.251-0.417-0.397-0.665-0.281c-0.25,0.117-0.358,0.475-0.241,0.725
		c5.696,12.152,2.377,24.963-3.836,35.963h1.121C597.448,351.671,600.674,338.589,594.896,326.265z"/>
	<path fill="#FFFFFF" d="M83.419,268.757c3.367-1.816,7.02-3.475,10.978-4.912c-1.517-4.762-3.228-9.644-5.163-14.598
		L83.419,268.757z"/>
	<path fill="#FFFFFF" d="M12.902,222.821c4.335,34.593,16.205,62.312,27.635,82.014c1.753,3.021,3.529,5.918,5.311,8.688
		c0.509-1.49,1.043-2.993,1.617-4.513c1.507-3.989,6.501-15.457,17.5-26.492l-11.171-27.426L12.902,222.821z"/>
	<path fill="#FFFFFF" d="M12.73,221.412l40.3,31.803l-38.823-95.318C10.503,181.029,10.456,202.26,12.73,221.412z"/>
	<path fill="#FFFFFF" d="M88.655,247.79c-2.386-5.99-5.104-12.072-8.189-18.159L65.552,281.31l0.183,0.448
		c4.473-4.366,9.899-8.634,16.437-12.313l6.413-21.521C88.6,247.873,88.628,247.831,88.655,247.79z"/>
	<path fill="#FFFFFF" d="M79.8,228.331c0.001-0.004,0.005-0.007,0.006-0.012c-13.485-26.151-33.898-52.238-64.775-71.052
		l49.912,122.546L79.8,228.331z"/>
	<path fill="#0C5AE5" d="M12.401,221.152l0.329,0.26c-2.274-19.152-2.228-40.383,1.477-63.516l-0.678-1.663
		c-0.042-0.104-0.039-0.211-0.013-0.313c-0.004,0.016-0.015,0.026-0.018,0.041c-3.987,23.804-4.103,45.619-1.796,65.271
		C11.876,221.019,12.187,220.984,12.401,221.152z"/>
	<path fill="#0C5AE5" d="M13.576,155.784c0.013-0.021,0.024-0.041,0.04-0.061C13.601,155.743,13.589,155.763,13.576,155.784z"/>
	<path fill="#0C5AE5" d="M14.012,155.547c0.012,0.001,0.023,0.007,0.035,0.008C14.035,155.554,14.023,155.548,14.012,155.547z"/>
	<path fill="#0C5AE5" d="M14.455,155.856l0.575,1.411c30.877,18.813,51.29,44.9,64.775,71.052c0.082-0.257,0.354-0.41,0.613-0.33
		c0.266,0.076,0.418,0.354,0.342,0.619l-0.295,1.022c3.085,6.087,5.804,12.169,8.189,18.159c0.12-0.175,0.335-0.265,0.551-0.203
		c0.265,0.079,0.415,0.357,0.337,0.622l-0.31,1.038c1.936,4.954,3.646,9.836,5.163,14.598c0.313-0.114,0.624-0.23,0.941-0.342
		c-6.271-19.685-15.896-41.437-30.657-61.639c-0.334-0.458-0.679-0.912-1.019-1.369c-12.521-16.806-28.633-32.475-49.414-44.88
		c-0.009-0.005-0.02-0.004-0.028-0.009C14.321,155.659,14.408,155.742,14.455,155.856z"/>
	<path fill="#0C5AE5" d="M13.782,155.591c-0.016,0.007-0.023,0.022-0.038,0.031c0.018-0.011,0.03-0.025,0.05-0.033
		C13.79,155.591,13.786,155.589,13.782,155.591z"/>
	<path fill="#0C5AE5" d="M45.848,313.522c-1.781-2.77-3.558-5.666-5.311-8.688c-11.43-19.702-23.3-47.421-27.635-82.014
		l-1.114-0.879c4.25,35.218,16.291,63.412,27.885,83.395c1.905,3.284,3.839,6.417,5.776,9.406
		C45.584,314.335,45.708,313.933,45.848,313.522z"/>
	<path fill="#0C5AE5" d="M12.902,222.821l40.892,32.271l-0.764-1.877l-40.3-31.803l-0.329-0.26c-0.215-0.168-0.525-0.134-0.698,0.08
		c-0.001,0.001-0.003,0.001-0.004,0.003c-0.171,0.217-0.134,0.531,0.083,0.702l0.006,0.005L12.902,222.821z"/>
	<path fill="#0C5AE5" d="M80.466,229.631l0.295-1.022c0.076-0.266-0.076-0.543-0.342-0.619c-0.26-0.08-0.531,0.073-0.613,0.33
		c-0.001,0.005-0.005,0.008-0.006,0.012l-14.857,51.482l0.609,1.496L80.466,229.631z"/>
	<path fill="#0C5AE5" d="M89.543,248.209c0.078-0.265-0.072-0.543-0.337-0.622c-0.216-0.062-0.431,0.028-0.551,0.203
		c-0.027,0.041-0.056,0.083-0.071,0.134l-6.413,21.521c0.411-0.231,0.828-0.461,1.248-0.688l5.814-19.51L89.543,248.209z"/>
	<path fill="#0C5AE5" d="M13.529,156.233l0.678,1.663l38.823,95.318l0.764,1.877l11.171,27.426c0.253-0.253,0.511-0.507,0.77-0.76
		l-0.183-0.448l-0.609-1.496L15.03,157.268l-0.575-1.411c-0.047-0.114-0.134-0.197-0.235-0.25c-0.054-0.028-0.111-0.045-0.173-0.052
		c-0.012-0.001-0.023-0.007-0.035-0.008c-0.069-0.003-0.14,0.007-0.208,0.035c-0.004,0.001-0.006,0.005-0.01,0.007
		c-0.02,0.008-0.032,0.022-0.05,0.033c-0.049,0.028-0.093,0.061-0.128,0.102c-0.016,0.02-0.027,0.04-0.04,0.061
		c-0.027,0.043-0.047,0.088-0.06,0.137C13.49,156.022,13.487,156.13,13.529,156.233z"/>
	<path fill="#0C5AE5" d="M250.003,249.544c0,0.057-0.209,0.126-0.428,0.163c-1.713,0.29-3.331-0.102-4.748-1.107
		c-1.417-1.005-2.308-2.5-2.599-4.211c-0.6-3.534,1.812-6.897,5.344-7.498c1.073-0.18,2.168-0.093,3.178,0.251
		c2.097-5.362,6.88-9.262,12.591-10.232c8.973-1.521,17.51,4.53,19.035,13.5c1.275,7.506-2.373,14.693-9.373,17.738v11.385
		c1-0.295,1.453-0.582,2.17-0.86c0.791-0.308,1.581-0.614,2.364-0.936c2.65-1.086,5.452-2.405,7.981-4.685
		c4.936-4.45,8.29-10.473,9.443-16.958c2.449-13.775-4.596-29.029-16.751-36.271c-14.716-8.768-35.159-6.379-49.714,5.805
		c-8.174,6.84-16.799,20.579-17.084,31.73c-0.141,5.479,1.647,9.922,5.313,13.324c0.777,0.721,1.69,0.988,2.715,1.988
		c0.001,0,0.001,0,0.002,0c0.234,0,0.306,0.516,0.16,0.75c-0.146,0.234-0.454,0.334-0.689,0.189
		c-0.45-0.281-0.903-0.406-1.369-0.406c-0.343,0-0.69,0.083-1.05,0.234c-1.893,0.797-3.563,3.606-3.929,5.267
		c-1.022,4.647,0.89,9.919,4.446,12.259c0.988,0.65,2.056,1.136,3.141,1.517c8.3-4.354,18.098-7.737,30.076-9.253
		c-0.006-0.168-0.227-0.334-0.227-0.505V249.544z"/>
	<path fill="#0C5AE5" d="M220.153,282.481c-1.085-0.381-2.152-0.865-3.141-1.516c-3.557-2.34-5.469-7.609-4.446-12.257
		c0.365-1.66,2.036-4.466,3.929-5.263c0.359-0.151,0.707-0.227,1.05-0.227c0.466,0,0.919,0.14,1.369,0.421
		c0.235,0.145,0.543,0.015,0.689-0.22c0.146-0.234,0.074-0.75-0.16-0.75c-0.001,0-0.001,0-0.002,0c-1.024-1-1.938-1.268-2.715-1.988
		c-3.666-3.402-5.454-7.875-5.313-13.354c0.285-11.152,8.91-24.876,17.084-31.716c14.555-12.184,34.998-14.565,49.714-5.798
		c12.155,7.242,19.2,22.499,16.751,36.274c-1.153,6.485-4.507,12.51-9.443,16.96c-2.529,2.279-5.33,3.6-7.98,4.686
		c-0.783,0.321-1.574,0.629-2.365,0.936c-0.717,0.279-1.17,0.566-2.17,0.861v1.084c1-0.35,1.695-0.687,2.532-1.012
		c0.797-0.311,1.593-0.619,2.381-0.942c2.734-1.121,5.628-2.486,8.272-4.868c5.1-4.599,8.565-10.822,9.758-17.524
		c2.52-14.17-4.724-29.859-17.224-37.306c-15.073-8.979-35.991-6.553-50.868,5.896c-8.344,6.983-17.148,21.038-17.441,32.472
		c-0.148,5.778,1.747,10.537,5.634,14.143c0.291,0.271,0.6,0.536,0.925,0.796c-0.288,0.049-0.577,0.133-0.864,0.254
		c-2.306,0.971-4.104,4.091-4.518,5.97c-1.125,5.113,0.925,10.71,4.874,13.308c0.808,0.531,1.659,0.952,2.526,1.305
		C219.375,282.896,219.761,282.687,220.153,282.481z"/>
	<path fill="#D4E6FC" d="M316.676,295.378c-11.793-12.281-27.138-19.808-43.745-21.588c-0.54,5.731-5.364,10.232-11.235,10.232
		c-5.72,0-10.442-4.275-11.183-9.796c-26.701,3.392-43.544,16.183-53.564,28.079c5.284,13.537,8.055,29.373,8.055,45.86v14.505h132
		V346.02C337.003,327.041,329.812,309.056,316.676,295.378z M317.503,351.292c-0.276,0-0.5-0.224-0.5-0.5v-16.867
		c0-0.276,0.224-0.5,0.5-0.5s0.5,0.224,0.5,0.5v16.867C318.003,351.068,317.779,351.292,317.503,351.292z"/>
	<path fill="#0C5AE5" d="M272.952,273.79c16.607,1.78,31.931,9.307,43.724,21.588c13.136,13.678,20.327,31.663,20.327,50.642v16.651
		h1V346.02c0-19.238-7.29-37.469-20.605-51.335c-11.971-12.466-27.553-20.101-44.416-21.895
		C272.979,273.128,272.983,273.461,272.952,273.79z"/>
	<path fill="#0C5AE5" d="M197.08,302.306c10.021-11.896,26.736-24.688,53.438-28.079c-0.044-0.329-0.071-0.661-0.087-0.998
		c-11.979,1.515-21.979,4.898-30.278,9.253c-0.393,0.205-0.778,0.415-1.163,0.625c-9.638,5.26-16.922,11.809-22.328,18.143
		C196.804,301.6,196.941,301.952,197.08,302.306z"/>
	<path fill="#FFFFFF" d="M266.107,259.677c-4.46,0-8.972-1.81-12.116-5.093c-1.131-1.179-1.988-2.503-2.988-3.943v22.082
		c0,5.68,4.82,10.3,10.5,10.3s10.5-4.62,10.5-10.3v-14.138c-1,0.38-2.036,0.672-3.125,0.857
		C267.953,259.6,267.028,259.677,266.107,259.677z"/>
	<path fill="#0C5AE5" d="M273.003,269.532v-11.385c0,0.152-1,0.307-1,0.438v14.138c0,5.68-4.82,10.3-10.5,10.3s-10.5-4.62-10.5-10.3
		v-22.082c0-0.396-0.392-0.797-0.561-1.211c-0.14,0.05,0.561,0.074-0.439,0.114v23.179c0,0.171,0.221,0.337,0.227,0.506
		c0.016,0.337,0.145,0.669,0.188,0.998c0.739,5.521,5.518,9.796,11.237,9.796c5.871,0,10.731-4.501,11.271-10.232
		c0.031-0.329,0.06-0.662,0.062-1c0.001-0.022,0.015-0.045,0.015-0.067v-2.106V269.532z"/>
	<path fill="#FFFFFF" d="M278.758,252.145c2.395-3.376,3.331-7.484,2.637-11.567c-1.434-8.426-9.453-14.121-17.879-12.682
		c-5.524,0.938-10.118,4.795-11.991,10.063c-0.046,0.131-0.145,0.237-0.272,0.292s-0.271,0.055-0.399-0.001
		c-0.964-0.425-2.032-0.554-3.087-0.373c-2.989,0.508-5.008,3.354-4.5,6.344c0.246,1.447,1.042,2.713,2.24,3.563
		c1.199,0.85,2.654,1.186,4.104,0.937c0.468-0.079,0.908-0.214,1.309-0.399c0.066-0.03,0.139-0.046,0.21-0.046
		c0.064,0,0.13,0.013,0.19,0.038c0.129,0.053,0.229,0.157,0.278,0.288c0.736,1.981,1.853,3.762,3.318,5.291
		c3.563,3.72,8.718,5.427,13.797,4.563C272.795,257.762,276.362,255.521,278.758,252.145z M252.267,245.544
		c-0.039,0.01-0.078,0.014-0.116,0.014c-0.226,0-0.431-0.154-0.486-0.383c-0.003-0.011-0.282-1.127-1.143-1.612
		c-0.484-0.272-1.084-0.299-1.786-0.08c-0.266,0.086-0.545-0.063-0.627-0.326c-0.083-0.264,0.063-0.545,0.326-0.627
		c0.981-0.311,1.852-0.251,2.587,0.167c1.24,0.706,1.601,2.185,1.615,2.248C252.7,245.212,252.534,245.479,252.267,245.544z"/>
	<path fill="#0C5AE5" d="M282.381,240.409c-1.525-8.97-10.061-15.021-19.033-13.5c-5.711,0.971-10.488,4.87-12.585,10.232
		c-1.01-0.344-2.092-0.431-3.165-0.251c-3.532,0.601-5.918,3.964-5.318,7.498c0.291,1.711,1.231,3.206,2.648,4.211
		c1.417,1.006,3.137,1.397,4.85,1.107c0.219-0.037,0.421-0.106,0.629-0.163c0.146-0.04,0.3-0.064,0.439-0.114
		c0.169,0.414,0.36,0.814,0.561,1.211c0.728,1.44,1.655,2.765,2.786,3.943c3.145,3.283,7.455,5.093,11.915,5.093
		c0.921,0,1.848-0.077,2.772-0.234c1.089-0.186,2.133-0.478,3.127-0.857c0.342-0.131,0.67-0.285,1-0.438
		C279.613,255.103,283.656,247.915,282.381,240.409z M254.915,253.893c-1.466-1.529-2.582-3.31-3.318-5.291
		c-0.049-0.131-0.149-0.235-0.278-0.288c-0.061-0.025-0.126-0.038-0.19-0.038c-0.071,0-0.144,0.016-0.21,0.046
		c-0.4,0.186-0.841,0.32-1.309,0.399c-1.449,0.249-2.904-0.087-4.104-0.937c-1.198-0.851-1.994-2.116-2.24-3.563
		c-0.508-2.99,1.511-5.836,4.5-6.344c1.055-0.181,2.123-0.052,3.087,0.373c0.128,0.056,0.271,0.056,0.399,0.001
		s0.227-0.161,0.272-0.292c1.873-5.269,6.467-9.125,11.991-10.063c8.426-1.439,16.445,4.256,17.879,12.682
		c0.694,4.083-0.242,8.191-2.637,11.567c-2.396,3.376-5.963,5.617-10.046,6.312C263.633,259.319,258.478,257.612,254.915,253.893z"
		/>
	<path fill="#0C5AE5" d="M251.021,242.696c-0.735-0.418-1.605-0.478-2.587-0.167c-0.263,0.082-0.409,0.363-0.326,0.627
		c0.082,0.263,0.361,0.412,0.627,0.326c0.702-0.219,1.302-0.192,1.786,0.08c0.86,0.485,1.14,1.602,1.143,1.612
		c0.056,0.229,0.261,0.383,0.486,0.383c0.038,0,0.077-0.004,0.116-0.014c0.268-0.064,0.434-0.332,0.37-0.6
		C252.622,244.881,252.262,243.402,251.021,242.696z"/>
	<path fill="#0C5AE5" d="M317.503,333.425c-0.276,0-0.5,0.224-0.5,0.5v16.867c0,0.276,0.224,0.5,0.5,0.5s0.5-0.224,0.5-0.5v-16.867
		C318.003,333.648,317.779,333.425,317.503,333.425z"/>
	<path fill="#0C5AE5" d="M467.12,283.824c0.634,0,1.273,0.016,1.921,0.053c6.555,0.37,12.362,2.348,17.261,5.88
		c1.354,0.975,2.542,1.877,3.636,2.707c4.879,3.702,7.823,5.938,15.132,6.817c1.352,0.162,2.657,0.366,3.919,0.564
		c6.46,1.011,11.563,1.811,16.692-3.523c4.075-4.237,7.42-11.925,5.929-18.417c-1.254-5.457-2.933-5.471-5.98-5.498
		c-1.401-0.012-2.99-0.025-4.888-0.518c-6.995-1.815-9.413-8.457-11.973-15.488c-2.71-7.442-5.512-15.138-14.06-17.606
		c-3.839-1.109-8.115-1.104-12.264-1.096c-5.581,0.016-11.349,0.02-16.376-2.62c-4.85-2.545-7.841-7.986-10.733-13.248
		c-1.34-2.438-2.605-4.74-4.003-6.653c-8.461-11.572-23.514-15.849-37.456-10.636c-9.798,3.66-16.884,11.261-18.49,19.835
		c-1.224,6.526,0.968,12.956,6.17,18.306c1.885-6.35,7.501-11.216,14.487-11.776c5.778-0.475,11.365,2.142,14.715,6.823
		c0.894-0.584,1.923-0.936,3.006-1.022c3.556-0.313,6.712,2.386,6.999,5.959s-2.387,6.713-5.959,6.999
		c-0.373,0.031-0.833,0.028-1.192-0.006c-0.111,0.801-0.609,1.58-0.609,2.349v23.685c13,1.036,23.105,4.07,31.854,8.191
		C465.575,283.85,466.386,283.824,467.12,283.824z"/>
	<path fill="#0C5AE5" d="M401.557,242.683c-5.202-5.35-7.394-11.779-6.17-18.306c1.606-8.574,8.692-16.175,18.49-19.835
		c13.942-5.213,28.995-0.937,37.456,10.636c1.397,1.913,2.663,4.216,4.003,6.653c2.893,5.262,5.884,10.703,10.733,13.248
		c5.027,2.64,10.795,2.636,16.376,2.62c4.148-0.008,8.425-0.014,12.264,1.096c8.548,2.469,11.35,10.164,14.06,17.606
		c2.56,7.031,4.978,13.673,11.973,15.488c1.897,0.492,3.486,0.506,4.888,0.518c3.048,0.027,4.727,0.041,5.98,5.498
		c1.491,6.492-1.854,14.18-5.929,18.417c-5.129,5.334-10.232,4.534-16.692,3.523c-1.262-0.198-2.567-0.402-3.919-0.564
		c-7.309-0.88-10.253-3.115-15.132-6.817c-1.094-0.83-2.282-1.732-3.636-2.707c-4.898-3.532-10.706-5.51-17.261-5.88
		c-0.647-0.037-1.287-0.053-1.921-0.053c-0.734,0-1.458,0.025-2.176,0.06c0.656,0.309,1.301,0.624,1.938,0.945
		c0.695-0.005,1.395,0.006,2.103,0.046c3.463,0.195,6.7,0.868,9.704,1.978c0.323,0.119,0.646,0.238,0.965,0.367
		c2.152,0.881,4.182,1.99,6.064,3.348c1.345,0.971,2.527,1.867,3.615,2.693c5.014,3.805,8.04,6.101,15.617,7.013
		c1.334,0.161,2.63,0.364,3.884,0.561c2.436,0.381,4.746,0.743,6.974,0.742c3.698,0,7.167-0.997,10.594-4.561
		c4.262-4.432,7.753-12.496,6.183-19.335c-1.431-6.225-3.744-6.245-6.946-6.273c-1.344-0.012-2.866-0.024-4.645-0.486
		c-3.973-1.03-6.383-3.834-8.225-7.406c-0.153-0.298-0.302-0.602-0.447-0.91c-0.964-2.03-1.782-4.264-2.613-6.545
		c-2.795-7.677-5.686-15.615-14.722-18.226c-3.977-1.147-8.334-1.128-12.543-1.135c-5.449,0.015-11.101,0.019-15.909-2.505
		c-4.583-2.406-7.5-7.713-10.321-12.845c-1.356-2.467-2.637-4.797-4.073-6.762c-8.726-11.938-24.242-16.351-38.612-10.983
		c-10.125,3.783-17.452,11.672-19.124,20.588c-1.318,7.035,1.109,13.946,6.849,19.615
		C401.336,243.426,401.446,243.054,401.557,242.683z"/>
	<path fill="#0C5AE5" d="M471.137,328.249c-0.117-0.25-0.009-0.588,0.241-0.705c0.248-0.117,0.548-0.029,0.665,0.221
		c0.173,0.369,0.331,0.729,0.488,1.101l34.79,33.184c3.842-13.361-0.845-28.735-3.426-35.571
		c-2.986-7.904-19.844-45.545-70.75-49.783c-0.338,5.931-5.255,10.654-11.269,10.654c-5.786,0-10.564-4.374-11.217-9.988
		c-14.839,2.576-28.532,9.818-39.231,20.96c-13.137,13.679-20.426,31.664-20.426,50.643v13.708h18v-13.705
		c0-0.276,0.224-0.5,0.5-0.5s0.5,0.224,0.5,0.5v13.705h99.02C474.116,351.671,476.382,339.439,471.137,328.249z"/>
	<path fill="#0C5AE5" d="M504.831,326.202c-1.912-5.063-9.441-22.209-27.733-35.19c-0.271-0.191-0.546-0.403-0.821-0.593
		c-2.867-1.98-5.993-3.866-9.395-5.58c-0.637-0.321-1.369-0.642-2.025-0.95c-8.748-4.121-18.854-7.16-31.854-8.196v0.356
		c0,0.218,0.066,0.431,0.055,0.645c50.906,4.238,67.808,41.878,70.794,49.782c2.581,6.835,7.29,22.287,3.448,35.648l0.51,0.547
		h0.415C512.244,348.671,507.465,333.176,504.831,326.202z"/>
	<path fill="#0C5AE5" d="M351.003,362.671v-13.708c0-18.979,7.289-36.964,20.426-50.643c10.699-11.142,24.365-18.384,39.204-20.96
		c-0.039-0.33-0.045-0.666-0.054-1.004c-15.089,2.597-29.004,9.948-39.879,21.271c-13.316,13.865-20.697,32.097-20.697,51.335
		v13.708H351.003z"/>
	<path fill="#FFFFFF" d="M418.684,263.8c-0.446,0.036-0.678,0.054-1.119,0.054c-2.021,0-4.562-0.381-5.562-1.062v13.257
		c0,5.68,4.32,10.3,10,10.3s10-4.62,10-10.3v-21.463c0,0.3-0.199,0.602-0.365,0.894C428.935,260.251,424.146,263.361,418.684,263.8z
		"/>
	<path fill="#0C5AE5" d="M410.66,277.36c0.652,5.614,5.431,9.988,11.217,9.988c6.014,0,10.843-4.725,11.181-10.655
		c0.012-0.214-0.055-0.427-0.055-0.645v-0.356v-23.685c0,0.884,0,1.744-1,2.578v21.463c0,5.68-4.32,10.3-10,10.3s-10-4.62-10-10.3
		v-13.257c-1-0.128-1-0.271-1-0.422v13.679c0,0.104-0.2,0.204-0.197,0.308C410.814,276.694,410.621,277.03,410.66,277.36z"/>
	<path fill="#FFFFFF" d="M418.604,262.804c5.132-0.412,9.712-3.335,12.252-7.816c1.044-1.844,1.688-3.845,1.913-5.946
		c0.015-0.139,0.087-0.265,0.198-0.348s0.253-0.115,0.391-0.09c0.435,0.081,0.895,0.102,1.367,0.065
		c3.022-0.243,5.285-2.899,5.043-5.923c-0.243-3.022-2.915-5.292-5.923-5.043c-1.066,0.087-2.069,0.475-2.9,1.122
		c-0.11,0.084-0.25,0.124-0.387,0.099c-0.138-0.021-0.259-0.1-0.337-0.215c-2.878-4.302-7.721-6.856-12.855-6.856
		c-0.413,0-0.826,0.017-1.241,0.05c-8.52,0.684-14.895,8.171-14.211,16.69S410.106,263.471,418.604,262.804z M434.341,242.378
		c0.275,0.016,0.486,0.251,0.471,0.527c-0.015,0.274-0.223,0.499-0.527,0.471c-0.735-0.04-1.314,0.134-1.717,0.521
		c-0.706,0.68-0.706,2.039-0.706,2.051c0.005,0.277-0.215,0.723-0.491,0.723c-0.003,0-0.006,0-0.009,0
		c-0.272,0-0.495-0.432-0.5-0.705c-0.001-0.064-0.016-1.693,1.013-2.683C432.484,242.695,433.319,242.33,434.341,242.378z"/>
	<path fill="#0C5AE5" d="M411.577,262.792c1.808,0.681,3.753,1.062,5.774,1.062c0.441,0,0.886-0.018,1.332-0.054
		c5.463-0.438,10.338-3.549,13.042-8.32c0.165-0.292,0.306-0.594,0.452-0.894c0.408-0.834,0.741-1.694,1-2.578
		c0.226-0.769,0.411-1.548,0.522-2.349c0.359,0.034,0.731,0.037,1.104,0.006c3.572-0.286,6.246-3.426,5.959-6.999
		s-3.443-6.271-6.999-5.959c-1.083,0.087-2.112,0.438-3.006,1.022c-3.35-4.682-8.937-7.298-14.715-6.823
		c-6.986,0.561-12.603,5.427-14.487,11.776c-0.11,0.371-0.221,0.743-0.305,1.125c-0.344,1.559-0.469,3.193-0.335,4.865
		c0.496,6.188,4.372,11.297,9.66,13.697C410.906,262.521,411.237,262.664,411.577,262.792z M416.124,231.902
		c0.415-0.033,0.828-0.05,1.241-0.05c5.135,0,9.978,2.555,12.855,6.856c0.078,0.115,0.199,0.193,0.337,0.215
		c0.137,0.025,0.276-0.015,0.387-0.099c0.831-0.647,1.834-1.035,2.9-1.122c3.008-0.249,5.68,2.021,5.923,5.043
		c0.242,3.023-2.021,5.68-5.043,5.923c-0.473,0.036-0.933,0.016-1.367-0.065c-0.138-0.025-0.279,0.007-0.391,0.09
		s-0.184,0.209-0.198,0.348c-0.226,2.102-0.869,4.103-1.913,5.946c-2.54,4.481-7.12,7.404-12.252,7.816
		c-8.497,0.667-16.007-5.691-16.69-14.211S407.604,232.586,416.124,231.902z"/>
	<path fill="#0C5AE5" d="M431.874,243.177c-1.028,0.989-1.014,2.725-1.013,2.789c0.005,0.273,0.228,0.705,0.5,0.705
		c0.003,0,0.006,0,0.009,0c0.276,0,0.496-0.445,0.491-0.723c0-0.012,0-1.265,0.706-1.944c0.402-0.388,0.981-0.614,1.717-0.575
		c0.305,0.029,0.513-0.223,0.527-0.497c0.016-0.276-0.195-0.524-0.471-0.54C433.319,242.343,432.484,242.589,431.874,243.177z"/>
	<path fill="#FFFFFF" d="M369.503,348.466c-0.276,0-0.5,0.224-0.5,0.5v13.705h1v-13.705
		C370.003,348.689,369.779,348.466,369.503,348.466z"/>
	<path fill="#0C5AE5" d="M507.321,362.124l-34.79-33.148c4.684,11.046,2.473,22.695-2.431,33.695h37.709L507.321,362.124z"/>
	<path fill="#FFFFFF" d="M472.531,328.936c-0.157-0.371-0.315-0.781-0.488-1.15c-0.117-0.251-0.417-0.378-0.665-0.261
		c-0.25,0.117-0.358,0.484-0.241,0.734c5.245,11.19,2.979,23.412-2.114,34.412h1.078
		C475.004,351.671,477.215,339.981,472.531,328.936z"/>
	<path fill="#0C5AE5" d="M114.077,233.063c-1.729-0.139-3.303-0.943-4.429-2.266s-1.669-3.003-1.53-4.732s0.943-3.303,2.266-4.429
		c1.323-1.127,3.006-1.671,4.733-1.53c1.083,0.086,2.112,0.438,3.006,1.021c3.351-4.684,8.949-7.302,14.715-6.823
		c5.755,0.462,10.582,3.845,13.162,8.57c2.39-7.774,2.739-16.219,0.287-22.463c-2.418-6.161-9.776-8.323-21.874-6.417
		c-8.447,1.329-15.729,5.387-19.979,11.132c-5.939,8.027-5.28,18.741,1.604,26.053c0.445,0.474,0.934,1.007,1.459,1.58
		c2.122,2.316,4.763,5.2,7.601,7.443h0.148c0.207,0.163-0.242,0.306,0.758,0.458v-5.254c-1-0.769-0.561-1.549-0.672-2.35
		C114.971,233.093,114.451,233.095,114.077,233.063z"/>
	<path fill="#0C5AE5" d="M116.003,240.661c-1-0.152-0.551-0.295-0.758-0.458h-0.074c-2.838-2.243-5.516-5.127-7.638-7.443
		c-0.525-0.573-1.032-1.106-1.478-1.58c-6.884-7.312-7.552-18.025-1.612-26.053c4.25-5.745,11.527-9.803,19.975-11.132
		c12.098-1.906,19.453,0.256,21.871,6.417c2.452,6.244,2.102,14.688-0.288,22.463c0.241,0.443,0.466,0.897,0.667,1.362
		c2.721-7.947,3.4-16.933,0.551-24.19c-2.613-6.657-10.335-9.027-22.962-7.04c-8.703,1.37-16.223,5.571-20.628,11.524
		c-6.231,8.424-5.541,19.664,1.68,27.334c0.443,0.47,0.929,1,1.45,1.57c2.146,2.343,4.966,5.259,7.866,7.553
		c0.417,0.33,0.378,0.633,1.378,0.917V240.661z"/>
	<path fill="#0C5AE5" d="M190.901,291.669c2.756,7.207,4.217,15.536,4.217,24.953c0,0.124-0.144,0.243-0.227,0.335l-11.889,13.062
		v1.078l3.977-0.574c0.15-0.023,0.516,0.021,0.625,0.115c0.11,0.095,0.398,0.233,0.398,0.379v31.654h16v-14.505
		C204.003,327.074,199.372,307.065,190.901,291.669z"/>
	<polygon fill="#0C5AE5" points="182.262,331.126 182.136,331.266 182.262,331.247 	"/>
	<path fill="#0C5AE5" d="M190.901,291.669c8.471,15.396,13.102,35.405,13.102,56.497v14.505h1v-14.505
		c0-16.487-2.768-32.323-8.053-45.86c-0.139-0.354-0.211-0.706-0.353-1.057c-2.78-6.895-6.144-13.181-10.121-18.603
		c-0.046-0.063-0.145-0.115-0.191-0.177C188.125,285.298,189.636,288.36,190.901,291.669z"/>
	<path fill="#0C5AE5" d="M183.003,332.108v22.754c0,0.276-0.224,0.5-0.5,0.5s-0.5-0.224-0.5-0.5v-22.605l-1.051,0.257
		l-27.023,30.157h33.074v-31.074L183.003,332.108z"/>
	<polygon fill="#0C5AE5" points="182.262,331.247 182.136,331.266 181.081,332.434 182.262,332.257 	"/>
	<path fill="#0C5AE5" d="M187.669,330.638c-0.109-0.094-0.459-0.139-0.609-0.115l-4.057,0.574v1.012l4-0.512v31.074h1v-31.654
		C188.003,330.871,187.779,330.732,187.669,330.638z"/>
	<path fill="#0C5AE5" d="M182.003,329.634v-4.678c0-0.276,0.224-0.5,0.5-0.5s0.5,0.224,0.5,0.5v3.57l11.051-12.097
		c-0.068-34.785-18.799-53.877-55.82-56.842c-0.076,6.165-5.077,11.159-11.261,11.159h0.015c-6.072,0-11.02-4.819-11.268-10.832
		c-48.248,5.593-64.405,41.724-67.323,49.448c-7.38,19.538-9.248,36.653-5.739,51.058l34.661-33.066
		c0.157-0.37,0.317-0.74,0.489-1.11c0.119-0.251,0.418-0.357,0.666-0.241c0.25,0.117,0.358,0.495,0.241,0.745
		c-5.688,12.132-2.391,24.923,3.8,35.923h70.066L182.003,329.634z"/>
	<polygon fill="#0C5AE5" points="181.081,332.514 182.007,331.306 182.003,331.126 182.003,329.634 152.581,362.671 
		153.929,362.671 	"/>
	<path fill="#0C5AE5" d="M42.659,360.421c-3.509-14.404-1.639-31.52,5.741-51.058c2.918-7.725,19.229-43.855,67.477-49.448
		c-0.006-0.156,0.126-0.311,0.126-0.468v-0.536c-8,0.866-14.453,2.47-20.516,4.592c-0.317,0.111-0.703,0.228-1.016,0.342
		c-3.959,1.438-7.648,3.096-11.016,4.912c-0.42,0.227-0.855,0.456-1.267,0.688c-6.537,3.68-11.973,7.947-16.445,12.313
		c-0.259,0.253-0.521,0.507-0.774,0.76c-10.999,11.035-15.996,22.503-17.503,26.492c-0.574,1.52-1.109,3.022-1.618,4.513
		c-0.14,0.41-0.264,0.813-0.398,1.221c-5.834,17.643-7.025,33.22-3.654,46.501L42.659,360.421z"/>
	<path fill="#0C5AE5" d="M138.003,259.447c0,0.048,0.145,0.093,0.145,0.141c37.021,2.965,55.762,22.057,55.83,56.842l-10.975,12.097
		v1.492l11.922-13.062c0.082-0.092,0.193-0.211,0.193-0.335c0-9.417-1.364-17.746-4.12-24.953c-1.265-3.309-2.809-6.371-4.648-9.199
		c-2.334-3.59-5.256-6.803-8.51-9.602c-9.441-8.122-22.837-12.911-39.837-14.28V259.447z"/>
	<path fill="#FFFFFF" d="M183.003,324.956c0-0.276-0.224-0.5-0.5-0.5s-0.5,0.224-0.5,0.5v4.678v1.492v0.121v1.01v22.605
		c0,0.276,0.224,0.5,0.5,0.5s0.5-0.224,0.5-0.5v-22.754v-1.012v-1.078v-1.492V324.956z"/>
	<path fill="#0C5AE5" d="M41.851,362.671h39.544c-5.966-11-9.15-23.275-4.075-35.236l-34.66,33.026l-0.863,0.804l-0.197,0.178
		c0.076,0.077,0.133,0.25,0.144,0.368C41.766,362.068,41.816,362.671,41.851,362.671z"/>
	<path fill="#FFFFFF" d="M78.715,326.748c0.117-0.25,0.009-0.588-0.241-0.705c-0.248-0.116-0.547-0.03-0.665,0.222
		c-0.173,0.369-0.332,0.81-0.489,1.18c-5.075,11.961-1.891,24.227,4.075,35.227h1.12C76.324,351.671,73.027,338.88,78.715,326.748z"
		/>
	<path fill="#FFFFFF" d="M41.851,362.511c-0.034-0.262-0.085-0.527-0.108-0.785c-0.011-0.118-0.067-0.216-0.144-0.293
		c-0.101-0.104-0.241-0.167-0.399-0.16c-0.274,0.024-0.478,0.268-0.453,0.543c0.021,0.228,0.063,0.465,0.092,0.695H41.851z"/>
	<path fill="#FFFFFF" d="M130.198,247.198c-5.463-0.438-10.188-3.549-12.892-8.32c-0.166-0.293-0.304-0.595-0.304-0.895v21.464
		c0,5.68,4.32,10.3,10,10.3s10-4.62,10-10.3V246.19c-2,0.68-3.602,1.062-5.623,1.062
		C130.938,247.252,130.646,247.234,130.198,247.198z"/>
	<path fill="#0C5AE5" d="M116.003,259.447c0,0.157-0.132,0.312-0.126,0.468c0.248,6.013,5.13,10.832,11.202,10.832h-0.037
		c6.184,0,11.048-4.994,11.124-11.159c0-0.048-0.163-0.093-0.163-0.141v-0.859v-12.819c0,0.149,0,0.293-1,0.422v13.257
		c0,5.68-4.32,10.3-10,10.3s-10-4.62-10-10.3v-21.464c-1-0.834-1-1.693-1-2.576v5.254v1.244v17.006V259.447z"/>
	<path fill="#FFFFFF" d="M132.758,215.301c-5.592-0.446-10.988,2.159-14.097,6.807c-0.078,0.115-0.199,0.193-0.337,0.215
		c-0.137,0.028-0.276-0.014-0.387-0.099c-0.831-0.647-1.834-1.035-2.9-1.121c-1.463-0.111-2.886,0.343-4.005,1.295
		c-1.119,0.953-1.8,2.284-1.918,3.748c-0.117,1.463,0.343,2.886,1.296,4.004c0.952,1.119,2.283,1.801,3.747,1.918
		c0.473,0.039,0.932,0.017,1.367-0.065c0.03-0.006,0.062-0.009,0.092-0.009c0.106,0,0.212,0.034,0.299,0.099
		c0.111,0.084,0.184,0.21,0.198,0.349c0.225,2.099,0.868,4.099,1.914,5.945c2.539,4.481,7.119,7.404,12.251,7.816
		c8.518,0.672,16.007-5.691,16.69-14.211S141.277,215.984,132.758,215.301z M117.521,229.671c-0.002,0-0.005,0-0.007,0
		c-0.275,0-0.496-0.245-0.493-0.521c0-0.012,0.003-1.169-0.711-1.851c-0.403-0.385-0.983-0.56-1.712-0.521
		c-0.301,0.041-0.513-0.197-0.527-0.473c-0.016-0.276,0.195-0.513,0.471-0.528c1.022-0.053,1.855,0.21,2.466,0.798
		c1.028,0.988,1.015,2.526,1.014,2.591C118.016,229.438,117.793,229.671,117.521,229.671z"/>
	<path fill="#0C5AE5" d="M146,222.875c-2.58-4.726-7.407-8.108-13.162-8.57c-5.766-0.479-11.364,2.14-14.715,6.823
		c-0.894-0.584-1.923-0.936-3.006-1.021c-1.728-0.141-3.41,0.403-4.733,1.53c-1.322,1.126-2.127,2.699-2.266,4.429
		s0.404,3.41,1.53,4.732s2.699,2.127,4.429,2.266c0.374,0.031,0.744,0.029,1.104-0.006c0.111,0.801,0.297,1.581,0.522,2.35
		c0.259,0.883,0.592,1.742,1,2.576c0.146,0.3,0.287,0.602,0.453,0.895c2.703,4.771,7.578,7.882,13.041,8.32
		c0.447,0.036,0.891,0.054,1.332,0.054c2.021,0,3.967-0.382,5.774-1.062c0.34-0.129,0.671-0.272,1-0.422
		c5.288-2.401,9.164-7.51,9.66-13.697c0.223-2.773-0.265-5.441-1.298-7.834C146.466,223.772,146.241,223.318,146,222.875z
		 M146.969,231.991c-0.684,8.52-8.173,14.883-16.69,14.211c-5.132-0.412-9.712-3.335-12.251-7.816
		c-1.046-1.847-1.689-3.847-1.914-5.945c-0.015-0.139-0.087-0.265-0.198-0.349c-0.087-0.064-0.192-0.099-0.299-0.099
		c-0.03,0-0.062,0.003-0.092,0.009c-0.436,0.082-0.895,0.104-1.367,0.065c-1.464-0.117-2.795-0.799-3.747-1.918
		c-0.953-1.118-1.413-2.541-1.296-4.004c0.118-1.464,0.799-2.795,1.918-3.748c1.119-0.952,2.542-1.406,4.005-1.295
		c1.066,0.086,2.069,0.474,2.9,1.121c0.11,0.085,0.25,0.127,0.387,0.099c0.138-0.021,0.259-0.1,0.337-0.215
		c3.108-4.647,8.505-7.253,14.097-6.807C141.277,215.984,147.652,223.472,146.969,231.991z"/>
	<path fill="#0C5AE5" d="M114.541,225.776c-0.275,0.016-0.486,0.251-0.471,0.527c0.015,0.275,0.227,0.512,0.527,0.471
		c0.729-0.038,1.309,0.133,1.712,0.518c0.714,0.682,0.711,1.847,0.711,1.858c-0.003,0.275,0.218,0.521,0.493,0.521
		c0.002,0,0.005,0,0.007,0c0.272,0,0.495-0.232,0.5-0.505c0.001-0.064,0.015-1.595-1.014-2.583
		C116.396,225.995,115.563,225.724,114.541,225.776z"/>
	<path fill="#FFFFFF" d="M375.935,95.828l3.083-5.101c1.871-3.351,2.868-7.164,2.875-11.014c0.01-6.196-2.489-11.896-7.035-16.314
		c-4.551-4.424-10.585-6.729-16.992-6.729h-0.044c-13.268,0-24.062,10.309-24.062,23.152c0,3.898,0.988,7.654,2.857,11.002
		l2.871,4.427c2.314,3.603,3.811,7.358,4.447,11.552l1.073,6.867h7.654l-4.021-33.422c-0.018-0.143,0.027-0.293,0.122-0.4
		s0.231-0.178,0.374-0.178h17.367c0.143,0,0.279,0.16,0.374,0.266c0.095,0.107,0.14,0.121,0.122,0.264l-4.021,33.471h7.673
		l1.399-7.71C372.697,102.314,374.004,99.023,375.935,95.828z"/>
	<polygon fill="#FFFFFF" points="349.701,80.671 353.669,113.671 361.974,113.671 365.941,80.671 	"/>
	<path fill="#0C5AE5" d="M344.579,113.671h0.43l-1.073-6.886c-0.637-4.192-2.133-8.056-4.447-11.658l-2.871-4.419
		c-1.869-3.348-2.857-7.009-2.857-10.906c0-12.844,10.794-23.131,24.062-23.131h0.044c6.407,0,12.441,2.305,16.992,6.729
		c4.546,4.418,7.045,10.19,7.035,16.387c-0.007,3.85-1.004,7.627-2.875,10.978l-3.083,5.083c-1.931,3.195-3.237,6.477-3.883,10.123
		l-1.399,7.701h0.553c0.181,0,0.331,0.278,0.419,0.422l1.412-7.869c0.624-3.524,1.888-6.834,3.754-9.922l3.092-5.094
		c1.963-3.514,3.004-7.484,3.011-11.504c0.01-6.469-2.596-12.419-7.338-17.027c-4.738-4.604-11.02-7.006-17.688-7.006
		c-0.001,0-0.046,0-0.046,0c-13.819,0-25.062,10.758-25.062,24.152c0,4.068,1.032,7.993,3,11.517l2.887,4.453
		c2.238,3.482,3.646,7.286,4.263,11.339l1.094,7.432v-0.037C344.003,114.25,344.303,113.671,344.579,113.671z"/>
	<path fill="#0C5AE5" d="M366.879,79.937c-0.095-0.105-0.231-0.266-0.374-0.266h-17.367c-0.143,0-0.279,0.16-0.374,0.266
		c-0.095,0.107-0.14,0.121-0.122,0.264l4.021,33.471h1.006l-3.968-33h16.24l-3.968,33h1.006l4.021-33.471
		C367.019,80.058,366.974,80.044,366.879,79.937z"/>
	<rect x="345.003" y="114.671" fill="#FFFFFF" width="26" height="11"/>
	<path fill="#0C5AE5" d="M372.003,126.454v-11.928c0-0.096-0.184-0.357-0.23-0.434c-0.088-0.144-0.387-0.422-0.567-0.422h-0.553
		h-7.673h-1.006h-8.305h-1.006h-7.654h-0.43c-0.276,0-0.576,0.579-0.576,0.855v0.037v11.891c0,0.276,0.3,0.217,0.576,0.217h26.626
		C371.481,126.671,372.003,126.73,372.003,126.454z M345.003,114.671h26v11h-26V114.671z"/>
	<path fill="#FFFFFF" d="M358.503,48.542c0.276,0,0.5-0.224,0.5-0.5V34.696c0-0.276-0.224-0.5-0.5-0.5s-0.5,0.224-0.5,0.5v13.346
		C358.003,48.318,358.227,48.542,358.503,48.542z"/>
	<path fill="#FFFFFF" d="M327.182,80.171c0-0.276-0.224-0.5-0.5-0.5h-13.346c-0.276,0-0.5,0.224-0.5,0.5s0.224,0.5,0.5,0.5h13.346
		C326.958,80.671,327.182,80.447,327.182,80.171z"/>
	<path fill="#FFFFFF" d="M390.603,80.171c0,0.276,0.224,0.5,0.5,0.5h13.346c0.276,0,0.5-0.224,0.5-0.5s-0.224-0.5-0.5-0.5h-13.346
		C390.826,79.671,390.603,79.895,390.603,80.171z"/>
	<path fill="#FFFFFF" d="M335.761,102.677l-9.433,9.433c-0.195,0.195-0.195,0.512,0,0.707c0.098,0.098,0.226,0.146,0.354,0.146
		s0.256-0.049,0.354-0.146l9.433-9.433c0.195-0.195,0.195-0.512,0-0.707S335.956,102.481,335.761,102.677z"/>
	<path fill="#FFFFFF" d="M381.67,57.975c0.128,0,0.256-0.049,0.354-0.146l9.433-9.433c0.195-0.195,0.195-0.512,0-0.707
		s-0.512-0.195-0.707,0l-9.433,9.433c-0.195,0.195-0.195,0.512,0,0.707C381.414,57.926,381.542,57.975,381.67,57.975z"/>
	<path fill="#FFFFFF" d="M335.761,57.828c0.098,0.098,0.226,0.146,0.354,0.146s0.256-0.049,0.354-0.146
		c0.195-0.195,0.195-0.512,0-0.707l-9.433-9.433c-0.195-0.195-0.512-0.195-0.707,0s-0.195,0.512,0,0.707L335.761,57.828z"/>
	<path fill="#FFFFFF" d="M382.023,102.677c-0.195-0.195-0.512-0.195-0.707,0s-0.195,0.512,0,0.707l9.433,9.433
		c0.098,0.098,0.226,0.146,0.354,0.146s0.256-0.049,0.354-0.146c0.195-0.195,0.195-0.512,0-0.707L382.023,102.677z"/>
	<path fill="#D4E6FC" d="M489.776,173.671h16.127c0.141,0,0.4-0.129,0.494-0.024l12.605,13.545v-13.397
		c0-0.276-0.025-0.123,0.251-0.123h9.505c4.139,0,7.244-3.743,7.244-7.882v-22.221c0-4.139-3.105-7.897-7.244-7.897h-38.982
		c-4.139,0-7.773,3.759-7.773,7.897v22.221C482.003,169.928,485.638,173.671,489.776,173.671z M520.84,151.77
		c1.588,0,2.879,1.291,2.879,2.879s-1.291,2.88-2.879,2.88s-2.88-1.292-2.88-2.88S519.252,151.77,520.84,151.77z M509.183,151.77
		c1.588,0,2.88,1.291,2.88,2.879s-1.292,2.88-2.88,2.88s-2.879-1.292-2.879-2.88S507.595,151.77,509.183,151.77z M497.526,151.77
		c1.588,0,2.879,1.291,2.879,2.879s-1.291,2.88-2.879,2.88s-2.879-1.292-2.879-2.88S495.938,151.77,497.526,151.77z"/>
	<path fill="#0C5AE5" d="M489.776,174.671h15.905l13.202,14.339c0.097,0.106,0.232,0.069,0.37,0.069c0.061,0,0.247-0.058,0.306-0.08
		c0.191-0.075,0.443-0.307,0.443-0.514v-13.814h8.756c4.689,0,8.244-4.192,8.244-8.882v-22.221c0-4.689-3.555-8.897-8.244-8.897
		h-38.982c-4.689,0-8.773,4.208-8.773,8.897v22.221C481.003,170.479,485.087,174.671,489.776,174.671z M482.003,143.568
		c0-4.139,3.635-7.897,7.773-7.897h38.982c4.139,0,7.244,3.759,7.244,7.897v22.221c0,4.139-3.105,7.882-7.244,7.882h-9.505
		c-0.276,0-0.251-0.153-0.251,0.123v13.397l-12.605-13.545c-0.094-0.104-0.354,0.024-0.494,0.024h-16.127
		c-4.139,0-7.773-3.743-7.773-7.882V143.568z"/>
	<circle fill="#0C5AE5" cx="520.84" cy="154.649" r="1.879"/>
	<path fill="#0C5AE5" d="M520.84,157.528c1.588,0,2.879-1.292,2.879-2.88s-1.291-2.879-2.879-2.879s-2.88,1.291-2.88,2.879
		S519.252,157.528,520.84,157.528z M520.84,152.77c1.036,0,1.879,0.843,1.879,1.879s-0.843,1.88-1.879,1.88s-1.88-0.844-1.88-1.88
		S519.804,152.77,520.84,152.77z"/>
	<circle fill="#0C5AE5" cx="509.183" cy="154.649" r="1.879"/>
	<path fill="#0C5AE5" d="M509.183,157.528c1.588,0,2.88-1.292,2.88-2.88s-1.292-2.879-2.88-2.879s-2.879,1.291-2.879,2.879
		S507.595,157.528,509.183,157.528z M509.183,152.77c1.036,0,1.88,0.843,1.88,1.879s-0.844,1.88-1.88,1.88s-1.879-0.844-1.879-1.88
		S508.146,152.77,509.183,152.77z"/>
	<circle fill="#0C5AE5" cx="497.526" cy="154.649" r="1.879"/>
	<path fill="#0C5AE5" d="M497.526,157.528c1.588,0,2.879-1.292,2.879-2.88s-1.291-2.879-2.879-2.879s-2.879,1.291-2.879,2.879
		S495.938,157.528,497.526,157.528z M497.526,152.77c1.036,0,1.879,0.843,1.879,1.879s-0.843,1.88-1.879,1.88
		s-1.879-0.844-1.879-1.88S496.49,152.77,497.526,152.77z"/>
	<path fill="#D4E6FC" d="M220.004,178.671h12.389c0.141,0,0.202-0.121,0.298-0.017l9.313,10.147v-9.992
		c0-0.276,0.369-0.139,0.646-0.139h7.302c3.115,0,6.053-2.896,6.053-6.01v-17.07c0-3.114-2.938-5.92-6.053-5.92h-29.946
		c-3.115,0-6.001,2.806-6.001,5.92v17.07C214.003,175.775,216.889,178.671,220.004,178.671z M243.866,161.847
		c1.257,0,2.279,1.022,2.279,2.279c0,1.256-1.022,2.278-2.279,2.278c-1.256,0-2.278-1.022-2.278-2.278
		C241.588,162.869,242.61,161.847,243.866,161.847z M235.151,161.847c1.256,0,2.278,1.022,2.278,2.279
		c0,1.256-1.022,2.278-2.278,2.278c-1.257,0-2.279-1.022-2.279-2.278C232.872,162.869,233.895,161.847,235.151,161.847z
		 M226.436,161.847c1.257,0,2.279,1.022,2.279,2.279c0,1.256-1.022,2.278-2.279,2.278s-2.279-1.022-2.279-2.278
		C224.156,162.869,225.179,161.847,226.436,161.847z"/>
	<path fill="#0C5AE5" d="M220.004,179.671h12.167l10.107,10.941c0.097,0.106,0.232,0.074,0.37,0.074c0.061,0,0.05-0.057,0.108-0.079
		c0.191-0.075,0.246-0.305,0.246-0.512v-10.425h6.947c3.666,0,7.053-3.344,7.053-7.01v-17.07c0-3.666-3.387-6.92-7.053-6.92h-29.946
		c-3.666,0-7.001,3.254-7.001,6.92v17.07C213.003,176.327,216.338,179.671,220.004,179.671z M214.003,155.591
		c0-3.114,2.886-5.92,6.001-5.92h29.946c3.115,0,6.053,2.806,6.053,5.92v17.07c0,3.114-2.938,6.01-6.053,6.01h-7.302
		c-0.276,0-0.646-0.138-0.646,0.139v9.992l-9.313-10.147c-0.096-0.104-0.157,0.017-0.298,0.017h-12.389
		c-3.115,0-6.001-2.896-6.001-6.01V155.591z"/>
	<circle fill="#0C5AE5" cx="226.436" cy="164.125" r="1.279"/>
	<path fill="#0C5AE5" d="M226.436,166.404c1.257,0,2.279-1.022,2.279-2.278c0-1.257-1.022-2.279-2.279-2.279
		s-2.279,1.022-2.279,2.279C224.156,165.382,225.179,166.404,226.436,166.404z M226.436,162.847c0.705,0,1.279,0.574,1.279,1.279
		s-0.574,1.278-1.279,1.278s-1.279-0.573-1.279-1.278S225.73,162.847,226.436,162.847z"/>
	<circle fill="#0C5AE5" cx="235.151" cy="164.125" r="1.279"/>
	<path fill="#0C5AE5" d="M235.151,166.404c1.256,0,2.278-1.022,2.278-2.278c0-1.257-1.022-2.279-2.278-2.279
		c-1.257,0-2.279,1.022-2.279,2.279C232.872,165.382,233.895,166.404,235.151,166.404z M235.151,162.847
		c0.705,0,1.278,0.574,1.278,1.279s-0.573,1.278-1.278,1.278s-1.279-0.573-1.279-1.278S234.446,162.847,235.151,162.847z"/>
	<circle fill="#0C5AE5" cx="243.866" cy="164.125" r="1.279"/>
	<path fill="#0C5AE5" d="M243.866,166.404c1.257,0,2.279-1.022,2.279-2.278c0-1.257-1.022-2.279-2.279-2.279
		c-1.256,0-2.278,1.022-2.278,2.279C241.588,165.382,242.61,166.404,243.866,166.404z M243.866,162.847
		c0.705,0,1.279,0.574,1.279,1.279s-0.574,1.278-1.279,1.278s-1.278-0.573-1.278-1.278S243.161,162.847,243.866,162.847z"/>
	<path fill="#D4E6FC" d="M136.433,162.671h10.738c0.276,0,0.832,0.487,0.832,0.764v15.305l14.047-15.772
		c0.095-0.104,0.063-0.296,0.204-0.296h18.221c4.711,0,8.528-3.568,8.528-8.279v-25.104c0-4.711-3.817-8.616-8.528-8.616h-44.042
		c-4.711,0-8.43,3.905-8.43,8.616v25.104C128.003,159.103,131.722,162.671,136.433,162.671z M171.016,138.723
		c1.719,0,3.116,1.397,3.116,3.116s-1.397,3.116-3.116,3.116s-3.116-1.397-3.116-3.116S169.297,138.723,171.016,138.723z
		 M158.197,138.723c1.719,0,3.116,1.397,3.116,3.116s-1.397,3.116-3.116,3.116s-3.116-1.397-3.116-3.116
		S156.479,138.723,158.197,138.723z M145.38,138.723c1.719,0,3.116,1.397,3.116,3.116s-1.397,3.116-3.116,3.116
		s-3.116-1.397-3.116-3.116S143.661,138.723,145.38,138.723z"/>
	<path fill="#0C5AE5" d="M127.003,154.392c0,5.262,4.168,9.279,9.43,9.279h10.57v16.362c0,0.207-0.039,0.392,0.153,0.467
		c0.059,0.022,0.037,0.033,0.098,0.033c0.138,0,0.231-0.189,0.329-0.296l14.893-16.566h17.999c5.262,0,9.528-4.018,9.528-9.279
		v-25.104c0-5.262-4.267-9.616-9.528-9.616h-44.042c-5.262,0-9.43,4.354-9.43,9.616V154.392z M128.003,129.287
		c0-4.711,3.719-8.616,8.43-8.616h44.042c4.711,0,8.528,3.905,8.528,8.616v25.104c0,4.711-3.817,8.279-8.528,8.279h-18.221
		c-0.141,0-0.109,0.191-0.204,0.296l-14.047,15.772v-15.305c0-0.276-0.556-0.764-0.832-0.764h-10.738
		c-4.711,0-8.43-3.568-8.43-8.279V129.287z"/>
	<circle fill="#0C5AE5" cx="171.016" cy="141.839" r="2.116"/>
	<path fill="#0C5AE5" d="M171.016,144.955c1.719,0,3.116-1.397,3.116-3.116s-1.397-3.116-3.116-3.116s-3.116,1.397-3.116,3.116
		S169.297,144.955,171.016,144.955z M171.016,139.723c1.167,0,2.116,0.949,2.116,2.116s-0.949,2.116-2.116,2.116
		s-2.116-0.949-2.116-2.116S169.849,139.723,171.016,139.723z"/>
	<circle fill="#0C5AE5" cx="158.197" cy="141.839" r="2.116"/>
	<path fill="#0C5AE5" d="M158.197,144.955c1.719,0,3.116-1.397,3.116-3.116s-1.397-3.116-3.116-3.116s-3.116,1.397-3.116,3.116
		S156.479,144.955,158.197,144.955z M158.197,139.723c1.167,0,2.116,0.949,2.116,2.116s-0.949,2.116-2.116,2.116
		s-2.116-0.949-2.116-2.116S157.03,139.723,158.197,139.723z"/>
	<circle fill="#0C5AE5" cx="145.38" cy="141.839" r="2.116"/>
	<path fill="#0C5AE5" d="M145.38,144.955c1.719,0,3.116-1.397,3.116-3.116s-1.397-3.116-3.116-3.116s-3.116,1.397-3.116,3.116
		S143.661,144.955,145.38,144.955z M145.38,139.723c1.167,0,2.116,0.949,2.116,2.116s-0.949,2.116-2.116,2.116
		s-2.116-0.949-2.116-2.116S144.213,139.723,145.38,139.723z"/>
	<polygon fill="#0C5AE5" points="409.765,186.413 389.506,132.49 367.475,142.798 	"/>
	<path fill="#0C5AE5" d="M395.466,145.51l-5.214-13.877c-0.049-0.131-0.15-0.234-0.279-0.287c-0.128-0.052-0.273-0.05-0.4,0.01
		l-23.157,10.834c-0.146,0.068-0.251,0.204-0.28,0.363c-0.028,0.158,0.021,0.322,0.133,0.438l2.443,2.52l0.97,1l41.037,42.323
		c0.098,0.101,0.228,0.152,0.359,0.152c0.093,0,0.186-0.025,0.268-0.077c0.2-0.127,0.284-0.377,0.2-0.599l-15.704-41.8
		L395.466,145.51z M389.506,132.49l20.259,53.923l-42.29-43.615L389.506,132.49z"/>
</g>
</svg>
